<?xml version="1.0" encoding="UTF-8"?>
<svg id="Layer_1" data-name="Layer 1" xmlns="http://www.w3.org/2000/svg" xmlns:xlink="http://www.w3.org/1999/xlink" version="1.1" viewBox="0 0 392 305">
  <defs>
    <style>
      .cls-1 {
        mask: url(#mask);
      }

      .cls-2 {
        fill: url(#linear-gradient);
      }

      .cls-2, .cls-3, .cls-4, .cls-5, .cls-6, .cls-7, .cls-8, .cls-9 {
        stroke-width: 0px;
      }

      .cls-2, .cls-3, .cls-4, .cls-7, .cls-9 {
        fill-rule: evenodd;
      }

      .cls-3 {
        fill: url(#linear-gradient-3);
      }

      .cls-4 {
        fill: url(#linear-gradient-5);
      }

      .cls-5 {
        fill: url(#linear-gradient-4);
      }

      .cls-6 {
        fill: url(#linear-gradient-2);
      }

      .cls-7, .cls-8 {
        fill: #fff;
      }

      .cls-9 {
        fill: #000;
      }

      .cls-10 {
        mask: url(#mask-1);
      }
    </style>
    <linearGradient id="linear-gradient" x1="350.2" y1="202" x2="298.7" y2="131.5" gradientTransform="translate(0 306) scale(1 -1)" gradientUnits="userSpaceOnUse">
      <stop offset="0" stop-color="#006bb0" stop-opacity=".4"/>
      <stop offset="1" stop-color="#35b0ff" stop-opacity=".2"/>
    </linearGradient>
    <mask id="mask" x="265.2" y="87.7" width="112" height="112" maskUnits="userSpaceOnUse">
      <g id="path-2-outside-1_2104_99" data-name="path-2-outside-1 2104 99">
        <rect class="cls-8" x="265.2" y="87.7" width="112" height="112"/>
        <path class="cls-9" d="M334.9,129.8v-40.1h-28v40.1h-39.6v28h39.6v39.6h28v-39.6h40.1v-28h-40.1Z"/>
      </g>
    </mask>
    <linearGradient id="linear-gradient-2" x1="321.1" y1="216.3" x2="321.1" y2="108.6" gradientTransform="translate(0 306) scale(1 -1)" gradientUnits="userSpaceOnUse">
      <stop offset="0" stop-color="#fff"/>
      <stop offset="1" stop-color="#fff" stop-opacity="0"/>
    </linearGradient>
    <linearGradient id="linear-gradient-3" x1="193.7" y1="297" x2="193.7" y2="23" gradientTransform="translate(0 306) scale(1 -1)" gradientUnits="userSpaceOnUse">
      <stop offset="0" stop-color="#006bb0" stop-opacity=".4"/>
      <stop offset="1" stop-color="#35b0ff" stop-opacity=".2"/>
    </linearGradient>
    <mask id="mask-1" x="70.5" y="7" width="246.3" height="278" maskUnits="userSpaceOnUse">
      <g id="path-4-inside-2_2104_99" data-name="path-4-inside-2 2104 99">
        <path class="cls-7" d="M253.1,56c7.7,32.8-12.6,65.7-45.4,73.4-32.8,7.7-65.7-12.6-73.4-45.4-7.7-32.8,12.6-65.7,45.4-73.4,32.8-7.7,65.7,12.6,73.4,45.4ZM193.7,160c59.9,0,109.8,42.8,120.8,99.4h0c2.4,12.2-7.3,23.6-19.7,23.6H92.6c-12.5,0-22.1-11.3-19.7-23.6,11-56.7,60.9-99.4,120.8-99.4Z"/>
      </g>
    </mask>
    <linearGradient id="linear-gradient-4" x1="61.1" y1="245.2" x2="290.3" y2="28.6" gradientTransform="translate(0 306) scale(1 -1)" gradientUnits="userSpaceOnUse">
      <stop offset="0" stop-color="#fff"/>
      <stop offset="1" stop-color="#fff" stop-opacity="0"/>
    </linearGradient>
    <linearGradient id="linear-gradient-5" x1="130.7" y1="262.8" x2="130.7" y2="22.8" gradientTransform="translate(0 306) scale(1 -1)" gradientUnits="userSpaceOnUse">
      <stop offset="0" stop-color="#006bb0"/>
      <stop offset="1" stop-color="#35b0ff"/>
    </linearGradient>
  </defs>
  <g>
    <path class="cls-2" d="M334.9,129.8v-40.1h-28v40.1h-39.6v28h39.6v39.6h28v-39.6h40.1v-28h-40.1Z"/>
    <g class="cls-1">
      <path class="cls-6" d="M334.9,89.7h2v-2h-2v2ZM334.9,129.8h-2v2h2v-2ZM306.9,89.7v-2h-2v2h2ZM306.9,129.8v2h2v-2h-2ZM267.2,129.8v-2h-2v2h2ZM267.2,157.8h-2v2h2v-2ZM306.9,157.8h2v-2h-2v2ZM306.9,197.4h-2v2h2v-2ZM334.9,197.4v2h2v-2h-2ZM334.9,157.8v-2h-2v2h2ZM375,157.8v2h2v-2h-2ZM375,129.8h2v-2h-2v2ZM332.9,89.7v40.1h4v-40.1h-4ZM306.9,91.7h28v-4h-28v4ZM308.9,129.8v-40.1h-4v40.1h4ZM306.9,127.8h-39.6v4h39.6v-4ZM265.2,129.8v28h4v-28h-4ZM267.2,159.8h39.6v-4h-39.6v4ZM308.9,197.4v-39.6h-4v39.6h4ZM334.9,195.4h-28v4h28v-4ZM332.9,157.8v39.6h4v-39.6h-4ZM334.9,159.8h40.1v-4h-40.1v4ZM377,157.8v-28h-4v28h4ZM375,127.8h-40.1v4h40.1v-4Z"/>
    </g>
  </g>
  <g>
    <path class="cls-3" d="M253.1,56c7.7,32.8-12.6,65.7-45.4,73.4-32.8,7.7-65.7-12.6-73.4-45.4-7.7-32.8,12.6-65.7,45.4-73.4,32.8-7.7,65.7,12.6,73.4,45.4ZM193.7,160c59.9,0,109.8,42.8,120.8,99.4h0c2.4,12.2-7.3,23.6-19.7,23.6H92.6c-12.5,0-22.1-11.3-19.7-23.6,11-56.7,60.9-99.4,120.8-99.4Z"/>
    <g class="cls-10">
      <path class="cls-5" d="M207.7,129.5l.5,1.9h0l-.5-1.9ZM253.1,56l-1.9.5,1.9-.5ZM134.2,84.1l1.9-.5h0l-1.9.5ZM179.6,10.6l.5,1.9-.5-1.9ZM314.4,259.4v2h2.4l-.5-2.4-2,.4ZM314.4,259.4v-2h-2.4l.5,2.4,2-.4ZM72.9,259.4l2,.4h0l-2-.4ZM208.1,131.4c33.9-8,54.9-42,46.9-75.8l-3.9.9c7.5,31.7-12.2,63.5-43.9,71l.9,3.9ZM132.3,84.5c8,33.9,42,54.9,75.8,46.9l-.9-3.9c-31.7,7.5-63.5-12.2-71-43.9l-3.9.9ZM179.2,8.7c-33.9,8-54.9,42-46.9,75.8l3.9-.9c-7.5-31.7,12.2-63.5,43.9-71l-.9-3.9ZM255,55.6C247,21.7,213,.7,179.2,8.7l.9,3.9c31.7-7.5,63.5,12.2,71,43.9l3.9-.9ZM316.4,259.1c-11.2-57.6-61.9-101.1-122.7-101.1v4c58.9,0,108,42.1,118.8,97.8l3.9-.8ZM314.4,261.4h0v-4h0v4ZM294.7,285c13.7,0,24.3-12.4,21.7-25.9l-3.9.8c2.1,11-6.5,21.2-17.8,21.2v4ZM92.6,285h202v-4H92.6v4ZM71,259.1c-2.6,13.5,8,25.9,21.7,25.9v-4c-11.3,0-19.9-10.2-17.8-21.2l-3.9-.8ZM193.7,158c-60.9,0-111.5,43.5-122.7,101.1l3.9.8c10.8-55.7,59.9-97.8,118.8-97.8v-4Z"/>
    </g>
  </g>
  <path class="cls-4" d="M130.7,149.7c29.4,0,53.3-23.8,53.3-53.3s-23.8-53.3-53.3-53.3-53.3,23.8-53.3,53.3,23.8,53.3,53.3,53.3ZM246.4,282.5c0,.2,0,.4,0,.6H15c0-.2,0-.4,0-.6,0-63.9,51.8-115.7,115.7-115.7s115.7,51.8,115.7,115.7Z"/>
</svg>