<?xml version="1.0" encoding="UTF-8"?>
<svg id="Layer_1" data-name="Layer 1" xmlns="http://www.w3.org/2000/svg" xmlns:xlink="http://www.w3.org/1999/xlink" version="1.1" viewBox="0 0 381 250">
  <defs>
    <style>
      .cls-1 {
        mask: url(#mask);
      }

      .cls-2 {
        fill: url(#linear-gradient);
      }

      .cls-2, .cls-3, .cls-4, .cls-5 {
        stroke-width: 0px;
      }

      .cls-2, .cls-3, .cls-5 {
        fill-rule: evenodd;
      }

      .cls-3 {
        fill: url(#linear-gradient-2);
      }

      .cls-6 {
        fill: url(#linear-gradient-4);
        stroke: url(#linear-gradient-5);
        stroke-width: 2.5px;
      }

      .cls-4 {
        fill: url(#linear-gradient-3);
      }

      .cls-5 {
        fill: #fff;
      }
    </style>
    <linearGradient id="linear-gradient" x1="190.4" y1="153.5" x2="190.4" y2="23.2" gradientTransform="translate(0 252) scale(1 -1)" gradientUnits="userSpaceOnUse">
      <stop offset="0" stop-color="#006bb0"/>
      <stop offset="1" stop-color="#35b0ff"/>
    </linearGradient>
    <linearGradient id="linear-gradient-2" x1="135.9" y1="243" x2="135.9" y2="158.5" gradientTransform="translate(0 252) scale(1 -1)" gradientUnits="userSpaceOnUse">
      <stop offset="0" stop-color="#026200" stop-opacity=".4"/>
      <stop offset="1" stop-color="#03a500" stop-opacity=".2"/>
    </linearGradient>
    <mask id="mask" x="84" y="8" width="103.9" height="86.5" maskUnits="userSpaceOnUse">
      <g id="path-2-inside-1_2104_77" data-name="path-2-inside-1 2104 77">
        <path class="cls-5" d="M106.2,9c-11.7,0-21.2,9.6-21.2,21.2s9.6,21.2,21.2,21.2,21.2-9.4,21.2-21.2c0-11.7-9.6-21.2-21.2-21.2ZM106.2,38.7c-4.7,0-8.3-3.8-8.3-8.3s3.8-8.3,8.3-8.3,8.3,3.7,8.3,8.3-3.8,8.3-8.3,8.3ZM162.2,18.8l-41.2,71.5c-1.2,1.9-3.4,3.2-5.6,3.2s-2.2-.2-3.2-.9c-3.1-1.8-4.2-5.8-2.3-8.8L151,12.3c1.8-3.1,5.8-4.2,8.8-2.3,3.1,1.8,4.2,5.8,2.3,8.8ZM144.4,72.2c0-11.7,9.6-21.2,21.2-21.2s21.2,9.6,21.2,21.2c0,11.7-9.6,21.2-21.2,21.2s-21.2-9.6-21.2-21.2ZM157.3,72.2c0,4.5,3.7,8.3,8.3,8.3s8.3-3.7,8.3-8.3c-.1-4.5-3.8-8.3-8.3-8.3s-8.3,3.7-8.3,8.3Z"/>
      </g>
    </mask>
    <linearGradient id="linear-gradient-3" x1="135.9" y1="243" x2="135.9" y2="158.5" gradientTransform="translate(0 252) scale(1 -1)" gradientUnits="userSpaceOnUse">
      <stop offset="0" stop-color="#fff"/>
      <stop offset="1" stop-color="#666" stop-opacity="0"/>
    </linearGradient>
    <linearGradient id="linear-gradient-4" x1="263.4" y1="138.8" x2="263.4" y2="24.3" gradientTransform="translate(507.3 -47) rotate(135)" gradientUnits="userSpaceOnUse">
      <stop offset="0" stop-color="#cead00" stop-opacity=".4"/>
      <stop offset="1" stop-color="#ffe76c" stop-opacity=".2"/>
    </linearGradient>
    <linearGradient id="linear-gradient-5" x1="263.4" y1="139.2" x2="263.4" y2="24" gradientTransform="translate(507.3 -47) rotate(135)" gradientUnits="userSpaceOnUse">
      <stop offset="0" stop-color="#fff"/>
      <stop offset="1" stop-color="#666" stop-opacity="0"/>
    </linearGradient>
  </defs>
  <path class="cls-2" d="M365.9,146.6c0,5.3-2.9,9.9-7.7,12.3l-132,63.8c-15.3,7.5-33.4,8.1-49.2,1.6l-102.9-42c-14.5-5.9-30.2-7.1-45.4-3.7l-13.6,3v-78.6l39.2-3.9c23.9-2.3,48.1,1.2,70,10.3l100.4,40.7c2.7,1.5,4.5,4.2,5.2,7.2,0,.8,0,1.6.2,2.4,0,.1,0,.2.1.3h0c-.1,6.3-5.2,11.3-11.4,11.3s-2.1-.1-3.1-.5h-.1l-82-25.3c-3.4-1.1-7,.9-8.1,4.3-1.1,3.4.9,7,4.3,8.1l81.9,25.3c2.1.7,4.3,1.1,6.9,1.1,12.4,0,22.8-9.4,24.3-21.4l105.8-29.5c1.5-.4,2.8-.6,3.8-.6,7.5,0,13.6,6.1,13.6,13.6Z"/>
  <path class="cls-3" d="M106.2,9c-11.7,0-21.2,9.6-21.2,21.2s9.6,21.2,21.2,21.2,21.2-9.4,21.2-21.2c0-11.7-9.6-21.2-21.2-21.2ZM106.2,38.7c-4.7,0-8.3-3.8-8.3-8.3s3.8-8.3,8.3-8.3,8.3,3.7,8.3,8.3-3.8,8.3-8.3,8.3ZM162.2,18.8l-41.2,71.5c-1.2,1.9-3.4,3.2-5.6,3.2s-2.2-.2-3.2-.9c-3.1-1.8-4.2-5.8-2.3-8.8L151,12.3c1.8-3.1,5.8-4.2,8.8-2.3,3.1,1.8,4.2,5.8,2.3,8.8ZM144.4,72.2c0-11.7,9.6-21.2,21.2-21.2s21.2,9.6,21.2,21.2c0,11.7-9.6,21.2-21.2,21.2s-21.2-9.6-21.2-21.2ZM157.3,72.2c0,4.5,3.7,8.3,8.3,8.3s8.3-3.7,8.3-8.3c-.1-4.5-3.8-8.3-8.3-8.3s-8.3,3.7-8.3,8.3Z"/>
  <g class="cls-1">
    <path class="cls-4" d="M127.5,30.2h1s0,0,0,0h-1ZM121,90.3l.8.5h0s0,0,0,0l-.9-.5ZM162.2,18.8l-.9-.5h0s0,0,0,0l.9.5ZM112.1,92.6l.5-.9h0s0,0,0,0l-.5.9ZM109.8,83.8l.9.5h0s0,0,0,0l-.9-.5ZM151,12.3l-.9-.5h0s0,0,0,0l.9.5ZM159.9,10l-.5.9h0l.5-.9ZM186.9,72.2h1s0,0,0,0h-1ZM174,72.2h1s0,0,0,0h-1ZM86,30.2c0-11.1,9.1-20.2,20.2-20.2v-2c-12.2,0-22.2,10-22.2,22.2h2ZM106.2,50.5c-11.1,0-20.2-9.1-20.2-20.2h-2c0,12.2,10,22.2,22.2,22.2v-2ZM126.5,30.2c0,11.2-9.1,20.2-20.2,20.2v2c12.2,0,22.2-9.9,22.2-22.2h-2ZM106.2,10c11.1,0,20.2,9.1,20.2,20.2h2c0-12.2-10-22.2-22.2-22.2v2ZM96.9,30.4c0,5.1,4.1,9.3,9.3,9.3v-2c-4.1,0-7.3-3.3-7.3-7.3h-2ZM106.2,21c-5.1,0-9.3,4.1-9.3,9.3h2c0-4.1,3.3-7.3,7.3-7.3v-2ZM115.6,30.4c0-5.2-4.3-9.3-9.3-9.3v2c4,0,7.3,3.2,7.3,7.3h2ZM106.2,39.7c5.1,0,9.3-4.1,9.3-9.3h-2c0,4.1-3.3,7.3-7.3,7.3v2ZM121.8,90.8l41.2-71.5-1.7-1-41.2,71.5,1.7,1ZM115.3,94.5c2.6,0,5.1-1.4,6.5-3.6l-1.7-1.1c-1.1,1.7-2.9,2.7-4.8,2.7v2ZM111.6,93.4c1.2.7,2.5,1,3.7,1v-2c-1,0-1.9-.2-2.7-.7l-1.1,1.7ZM108.9,83.2c-2.1,3.6-.8,8.1,2.7,10.2l1-1.7c-2.6-1.6-3.5-4.9-2-7.5l-1.7-1ZM150.2,11.8l-41.2,71.4,1.7,1L151.9,12.8l-1.7-1ZM160.4,9.1c-3.6-2.1-8.1-.8-10.2,2.7l1.7,1c1.6-2.6,4.9-3.5,7.5-2l1-1.7ZM163.1,19.3c2.1-3.6.8-8.1-2.7-10.2l-1,1.7c2.6,1.6,3.5,4.9,2,7.5l1.7,1ZM165.7,50c-12.2,0-22.2,10-22.2,22.2h2c0-11.1,9.1-20.2,20.2-20.2v-2ZM187.9,72.2c0-12.2-10-22.2-22.2-22.2v2c11.1,0,20.2,9.1,20.2,20.2h2ZM165.7,94.5c12.2,0,22.2-10,22.2-22.2h-2c0,11.1-9.1,20.2-20.2,20.2v2ZM143.4,72.2c0,12.2,10,22.2,22.2,22.2v-2c-11.1,0-20.2-9.1-20.2-20.2h-2ZM165.7,79.6c-4.1,0-7.3-3.3-7.3-7.3h-2c0,5.1,4.1,9.3,9.3,9.3v-2ZM173,72.2c0,4.1-3.3,7.3-7.3,7.3v2c5.1,0,9.3-4.1,9.3-9.3h-2ZM165.7,64.9c4,0,7.2,3.3,7.3,7.4h2c-.1-5.1-4.2-9.4-9.3-9.4v2ZM158.3,72.2c0-4.1,3.3-7.3,7.3-7.3v-2c-5.1,0-9.3,4.1-9.3,9.3h2Z"/>
  </g>
  <path class="cls-6" d="M263.4,137.9c31.1,0,56.3-25.2,56.3-56.3s-25.2-56.3-56.3-56.3c-31.1,0-56.3,25.2-56.3,56.3s25.2,56.3,56.3,56.3ZM286.9,100c-1.7,3.7-4.9,6.6-9.8,8.8l1.6,5.5-6.8,1.9-1.6-5.7c-4,.7-7.9.2-11.6-1.6-3.7-1.8-6.5-6-8.3-12.5l-.8-2.9,14.7-4.2,1,3.6c1.1,4,2,6.4,2.6,7.2.6.9,1.4,1.1,2.6.8,1-.3,1.6-.8,1.9-1.6.3-.8.3-1.9-.1-3.2-.9-3.3-1.8-5.6-2.7-6.9-.9-1.3-2.9-2.4-6-3.3-5.3-1.5-8.9-2.7-10.9-3.6-2-.9-3.9-2.3-5.8-4.4-1.9-2.1-3.2-4.6-4.1-7.6-1.3-4.4-1-8.2.8-11.4,1.8-3.2,5.1-5.8,9.9-7.8l-1.3-4.7,6.8-1.9,1.3,4.7c4.7-.7,8.5-.2,11.5,1.7,3,1.8,5.1,4.9,6.3,9.2.2.6.4,1.5.6,2.8l-14.7,4.2-.7-2.4c-.7-2.6-1.4-4.2-2-4.9-.6-.7-1.4-.9-2.5-.6-.9.3-1.5.8-1.7,1.6-.3.8-.2,1.9.2,3.3.7,2.3,1.6,3.8,2.8,4.4,1.2.7,4.3,1.7,9.5,3.1,4.4,1.2,7.4,2.2,9.1,3,1.7.8,3.3,2.2,4.9,4.1,1.6,1.9,2.8,4.5,3.7,7.8,1.5,5.2,1.4,9.7-.3,13.4Z"/>
</svg>