<svg width="344" height="317" viewBox="0 0 344 317" fill="none" xmlns="http://www.w3.org/2000/svg">
<g filter="url(#filter0_d_2104_47)">
<path d="M122.382 206.301L122.381 206.301C121.167 208.46 118.43 209.225 116.272 208.009L37.036 163.376L37.0358 163.376C34.8763 162.16 34.1126 159.424 35.3289 157.265L35.329 157.265L61.9716 109.949L61.9721 109.948L65.5085 103.654L65.509 103.653L116.898 12.3859C116.898 12.3858 116.898 12.3857 116.898 12.3856C118.115 10.2269 120.85 9.46293 123.008 10.6792L123.008 10.6793L161.045 32.1102L161.045 32.1104L202.246 55.3128L202.246 55.3129C204.404 56.5279 205.169 59.2642 203.955 61.4228C203.955 61.4229 203.955 61.4229 203.955 61.423L141.912 171.612L122.382 206.301Z" fill="url(#paint0_linear_2104_47)" stroke="url(#paint1_linear_2104_47)" stroke-width="2.20093"/>
<g style="mix-blend-mode:multiply" opacity="0.4">
<path d="M207.654 57.0948L142.871 172.152L120.078 189.063L61.0127 109.409L64.5496 103.114L161.585 31.1515L207.654 57.0948Z" fill="#2141B1"/>
</g>
<path d="M263.962 86.9693L263.96 86.9678L209.793 13.9267C209.792 13.9262 209.792 13.9257 209.792 13.9252C208.309 11.9347 205.498 11.5191 203.512 12.9977L203.51 12.9989L69.9797 112.039C69.9793 112.039 69.9789 112.04 69.9784 112.04C67.988 113.523 67.5723 116.335 69.0509 118.321L69.052 118.323L123.22 191.364L263.962 86.9693ZM263.962 86.9693C265.44 88.9559 265.024 91.7674 263.034 93.2504L263.962 86.9693ZM129.501 192.293L129.502 192.292L263.033 93.2516L129.501 192.293ZM129.501 192.293C127.514 193.772 124.704 193.356 123.221 191.366L129.501 192.293ZM221.186 93.8137L221.187 93.8141C222.779 95.962 222.318 98.9752 220.199 100.564L220.192 100.57L220.184 100.576C219.325 101.196 218.318 101.511 217.323 101.511C215.836 101.511 214.384 100.837 213.441 99.5572C213.44 99.5562 213.44 99.5552 213.439 99.5542L212.621 98.4604C208.512 100.983 203.79 102.573 199.391 102.573H199.186H199.176C196.524 102.548 194.372 100.378 194.418 97.6945C194.445 95.0225 196.592 92.9694 199.26 92.9223L199.27 92.9221H199.279H199.391C201.656 92.9221 204.322 92.0776 206.833 90.6665L200.287 81.8426C197.413 82.9065 194.271 83.8607 191.266 83.8881C187.911 83.9187 184.701 82.7899 182.25 79.4804L182.25 79.4798C179.334 75.5368 179.048 70.6645 181.321 65.8771C182.169 64.0776 183.338 62.3753 184.684 60.7941L184.374 60.3729L221.186 93.8137ZM221.186 93.8137L219.94 92.1347C220.936 90.9285 221.794 89.6465 222.476 88.2991C225.196 82.974 224.904 77.4757 221.541 72.937L221.539 72.935C219.085 69.6389 215.932 68.4148 212.612 68.3458C209.635 68.284 206.528 69.1485 203.659 70.1729L197.749 62.214C198.765 61.5763 199.766 61.0401 200.684 60.6326C201.91 60.0893 202.91 59.8104 203.58 59.7736C206.255 59.65 208.301 57.3832 208.181 54.7322L208.18 54.7223C208.036 52.0674 205.751 50.0237 203.121 50.1443L203.12 50.1443C199.891 50.2954 195.795 51.9552 191.987 54.4421C190.368 52.4641 187.457 52.068 185.366 53.6189L185.361 53.6225M221.186 93.8137L185.361 53.6225M185.361 53.6225C183.243 55.2113 182.781 58.2229 184.372 60.3706L185.361 53.6225Z" fill="url(#paint2_linear_2104_47)" stroke="url(#paint3_linear_2104_47)" stroke-width="2.20093"/>
<g style="mix-blend-mode:lighten" opacity="0.5">
<path d="M203.618 31.1299L81.5938 121.94L127.532 179.748L249.556 88.9381L203.618 31.1299ZM220.303 94.4695C221.531 96.127 221.178 98.455 219.539 99.6841C218.869 100.168 218.087 100.41 217.323 100.41C216.169 100.41 215.051 99.889 214.325 98.902L212.891 96.9836C208.72 99.7399 203.841 101.472 199.391 101.472H199.186C197.138 101.453 195.481 99.7772 195.518 97.71C195.536 95.6614 197.175 94.0597 199.279 94.0225H199.391C202.24 94.0225 205.536 92.8306 208.441 90.9868L200.676 80.5203C194.531 82.8668 187.548 84.7851 183.135 78.8254C180.491 75.2497 180.193 70.8172 182.315 66.3475C183.228 64.4106 184.55 62.5669 186.096 60.8535L185.258 59.7174C184.029 58.06 184.382 55.732 186.021 54.5027C187.678 53.2736 190.006 53.6275 191.235 55.2664L191.738 55.9368C195.704 53.1804 199.987 51.3926 203.171 51.2436C205.201 51.1505 206.97 52.7335 207.081 54.7821C207.175 56.8307 205.592 58.5814 203.525 58.6745C201.793 58.7676 198.944 60.0341 196.17 61.9336L203.264 71.4876C209.39 69.2156 216.206 67.6139 220.656 73.5921C223.747 77.7639 224.045 82.811 221.494 87.8021C220.731 89.3106 219.725 90.7447 218.534 92.0856L220.303 94.4695Z" fill="white"/>
</g>
<g style="mix-blend-mode:lighten" opacity="0.5">
<path d="M220.656 73.5921C216.206 67.6138 209.39 69.2156 203.264 71.4876L196.169 61.9336C198.944 60.034 201.793 58.7675 203.525 58.6744C205.592 58.5813 207.174 56.8307 207.081 54.7821C206.97 52.7334 205.201 51.1504 203.171 51.2435C199.987 51.3926 195.704 53.1804 191.738 55.9368L191.235 55.2663C190.006 53.6274 187.678 53.2736 186.021 54.5027C184.382 55.7319 184.028 58.0599 185.258 59.7173L186.095 60.8535C184.55 62.5668 183.228 64.4106 182.315 66.3474C180.193 70.8172 180.491 75.2497 183.135 78.8254C187.548 84.785 194.531 82.8667 200.676 80.5202L208.441 90.9868C205.536 92.8305 202.24 94.0225 199.391 94.0225H199.279C197.175 94.0597 195.536 95.6614 195.518 97.71C195.48 99.7772 197.138 101.453 199.186 101.472H199.391C203.841 101.472 208.72 99.7399 212.891 96.9836L214.325 98.9019C215.051 99.8889 216.169 100.41 217.323 100.41C218.087 100.41 218.869 100.168 219.539 99.6841C221.178 98.455 221.531 96.127 220.302 94.4694L218.533 92.0855C219.725 90.7447 220.731 89.3106 221.494 87.8021C224.045 82.8109 223.747 77.7638 220.656 73.5921ZM189.112 74.3929C188.498 73.5548 187.809 72.1395 189.038 69.5321C189.447 68.6754 190.006 67.8188 190.658 66.9993L196.058 74.2625C192.576 75.4731 190.192 75.827 189.112 74.3929ZM214.865 84.4125C214.604 84.9154 214.288 85.4183 213.953 85.9024L207.919 77.7638C211.215 76.7022 213.524 76.4974 214.66 78.0246C215.182 78.7137 216.709 80.7809 214.865 84.4125Z" fill="white"/>
</g>
<path d="M277.949 295.945H29.8969L15 281.046V123.339L29.8969 108.44H277.949L292.846 123.339V281.046L277.949 295.945Z" fill="url(#paint4_linear_2104_47)"/>
<g filter="url(#filter1_b_2104_47)">
<path d="M317.532 237.326H200.275L188.807 225.858V178.698L200.275 167.23H317.532L329 178.698V225.858L317.532 237.326Z" fill="url(#paint5_linear_2104_47)"/>
<path d="M327.9 225.403L317.076 236.226H200.731L189.907 225.403V179.154L200.731 168.33H317.076L327.9 179.154V225.403Z" stroke="url(#paint6_linear_2104_47)" stroke-width="2.20093"/>
</g>
</g>
<defs>
<filter id="filter0_d_2104_47" x="0" y="0" width="344" height="316.945" filterUnits="userSpaceOnUse" color-interpolation-filters="sRGB">
<feFlood flood-opacity="0" result="BackgroundImageFix"/>
<feColorMatrix in="SourceAlpha" type="matrix" values="0 0 0 0 0 0 0 0 0 0 0 0 0 0 0 0 0 0 127 0" result="hardAlpha"/>
<feOffset dy="6"/>
<feGaussianBlur stdDeviation="7.5"/>
<feComposite in2="hardAlpha" operator="out"/>
<feColorMatrix type="matrix" values="0 0 0 0 0 0 0 0 0 0 0 0 0 0 0 0 0 0 0.15 0"/>
<feBlend mode="normal" in2="BackgroundImageFix" result="effect1_dropShadow_2104_47"/>
<feBlend mode="normal" in="SourceGraphic" in2="effect1_dropShadow_2104_47" result="shape"/>
</filter>
<filter id="filter1_b_2104_47" x="177.802" y="156.225" width="162.202" height="92.1059" filterUnits="userSpaceOnUse" color-interpolation-filters="sRGB">
<feFlood flood-opacity="0" result="BackgroundImageFix"/>
<feGaussianBlur in="BackgroundImageFix" stdDeviation="5.50234"/>
<feComposite in2="SourceAlpha" operator="in" result="effect1_backgroundBlur_2104_47"/>
<feBlend mode="normal" in="SourceGraphic" in2="effect1_backgroundBlur_2104_47" result="shape"/>
</filter>
<linearGradient id="paint0_linear_2104_47" x1="144.855" y1="18.1706" x2="82.4952" y2="195.346" gradientUnits="userSpaceOnUse">
<stop stop-color="#8EE144" stop-opacity="0.45"/>
<stop offset="1" stop-color="#4E7B25" stop-opacity="0.2"/>
</linearGradient>
<linearGradient id="paint1_linear_2104_47" x1="180.804" y1="0.196264" x2="69.6565" y2="166.367" gradientUnits="userSpaceOnUse">
<stop stop-color="white"/>
<stop offset="1" stop-color="#666666" stop-opacity="0"/>
</linearGradient>
<linearGradient id="paint2_linear_2104_47" x1="234.727" y1="39.0795" x2="77.7266" y2="157.196" gradientUnits="userSpaceOnUse">
<stop stop-color="#8EE144" stop-opacity="0.45"/>
<stop offset="1" stop-color="#4E7B25" stop-opacity="0.2"/>
</linearGradient>
<linearGradient id="paint3_linear_2104_47" x1="256.736" y1="35.4113" x2="87.264" y2="147.292" gradientUnits="userSpaceOnUse">
<stop stop-color="white"/>
<stop offset="1" stop-color="#666666" stop-opacity="0"/>
</linearGradient>
<linearGradient id="paint4_linear_2104_47" x1="153.923" y1="108.44" x2="153.923" y2="295.945" gradientUnits="userSpaceOnUse">
<stop stop-color="#006BB0"/>
<stop offset="1" stop-color="#35B0FF"/>
</linearGradient>
<linearGradient id="paint5_linear_2104_47" x1="174.751" y1="202.131" x2="334.049" y2="202.131" gradientUnits="userSpaceOnUse">
<stop stop-color="#4AB8FF" stop-opacity="0.45"/>
<stop offset="1" stop-color="#07324E" stop-opacity="0.2"/>
</linearGradient>
<linearGradient id="paint6_linear_2104_47" x1="258.903" y1="150.96" x2="258.903" y2="247.435" gradientUnits="userSpaceOnUse">
<stop stop-color="white"/>
<stop offset="1" stop-color="#666666" stop-opacity="0"/>
</linearGradient>
</defs>
</svg>
