<svg width="302" height="80" viewBox="0 0 302 80" fill="none" xmlns="http://www.w3.org/2000/svg">
<g filter="url(#filter0_d_277_55114)">
<rect x="3" y="2" width="296" height="74" rx="2" fill="#FAFAFA"/>
<rect x="14.5" y="26.5" width="25" height="25" rx="1.5" fill="white"/>
<rect x="14.5" y="26.5" width="25" height="25" rx="1.5" stroke="#C1C1C1"/>
<path d="M55.737 44.5H54.239V34.448H55.737V44.5ZM58.8685 33.776C59.0738 34.1167 59.2115 34.476 59.2815 34.854C59.3562 35.2273 59.3655 35.5983 59.3095 35.967C59.2535 36.331 59.1322 36.6833 58.9455 37.024C58.7588 37.36 58.5115 37.661 58.2035 37.927L57.7835 37.661C57.7042 37.6097 57.6692 37.549 57.6785 37.479C57.6878 37.4043 57.7135 37.346 57.7555 37.304C57.8722 37.164 57.9725 36.9913 58.0565 36.786C58.1452 36.576 58.2035 36.3497 58.2315 36.107C58.2595 35.8597 58.2502 35.6053 58.2035 35.344C58.1568 35.0827 58.0588 34.826 57.9095 34.574C57.8442 34.4667 57.8255 34.371 57.8535 34.287C57.8815 34.203 57.9422 34.1423 58.0355 34.105L58.8685 33.776ZM60.9453 44.5V37.388H61.7643C61.9557 37.388 62.0747 37.479 62.1213 37.661L62.2193 38.34C62.4807 38.0273 62.77 37.773 63.0873 37.577C63.4093 37.3763 63.785 37.276 64.2143 37.276C64.6857 37.276 65.0683 37.4067 65.3623 37.668C65.6563 37.9247 65.871 38.2747 66.0063 38.718C66.109 38.466 66.242 38.249 66.4053 38.067C66.5687 37.885 66.7507 37.7357 66.9513 37.619C67.152 37.5023 67.3643 37.416 67.5883 37.36C67.817 37.304 68.048 37.276 68.2813 37.276C68.6593 37.276 68.9953 37.3367 69.2893 37.458C69.588 37.5747 69.84 37.7473 70.0453 37.976C70.2507 38.2047 70.407 38.487 70.5143 38.823C70.6217 39.159 70.6753 39.5417 70.6753 39.971V44.5H69.3033V39.971C69.3033 39.439 69.1867 39.0377 68.9533 38.767C68.7247 38.4963 68.3887 38.361 67.9453 38.361C67.7493 38.361 67.5627 38.396 67.3853 38.466C67.208 38.5313 67.0517 38.6317 66.9163 38.767C66.7857 38.9023 66.6807 39.0703 66.6013 39.271C66.5267 39.4717 66.4893 39.705 66.4893 39.971V44.5H65.1173V39.971C65.1173 39.4203 65.0077 39.0143 64.7883 38.753C64.569 38.4917 64.247 38.361 63.8223 38.361C63.5283 38.361 63.2553 38.438 63.0033 38.592C62.7513 38.746 62.5203 38.956 62.3103 39.222V44.5H60.9453ZM77.3338 38.375C77.4878 38.2117 77.6488 38.0623 77.8168 37.927C77.9848 37.7917 78.1621 37.6773 78.3488 37.584C78.5401 37.486 78.7431 37.4113 78.9578 37.36C79.1771 37.304 79.4104 37.276 79.6578 37.276C80.0498 37.276 80.3928 37.3413 80.6868 37.472C80.9854 37.6027 81.2351 37.787 81.4358 38.025C81.6364 38.2583 81.7881 38.5407 81.8908 38.872C81.9934 39.2033 82.0448 39.5697 82.0448 39.971V44.5H80.6728V39.971C80.6728 39.4623 80.5561 39.068 80.3228 38.788C80.0894 38.5033 79.7324 38.361 79.2518 38.361C78.9018 38.361 78.5728 38.445 78.2648 38.613C77.9614 38.7763 77.6791 39.0003 77.4178 39.285V44.5H76.0528V37.388H76.8718C77.0631 37.388 77.1821 37.479 77.2288 37.661L77.3338 38.375ZM86.9177 37.276C87.4404 37.276 87.9117 37.3623 88.3317 37.535C88.7564 37.703 89.1157 37.948 89.4097 38.27C89.7084 38.5873 89.9371 38.9723 90.0957 39.425C90.2544 39.873 90.3337 40.377 90.3337 40.937C90.3337 41.497 90.2544 42.0033 90.0957 42.456C89.9371 42.9087 89.7084 43.2937 89.4097 43.611C89.1157 43.9283 88.7564 44.1733 88.3317 44.346C87.9117 44.514 87.4404 44.598 86.9177 44.598C86.3904 44.598 85.9144 44.514 85.4897 44.346C85.0697 44.1733 84.7104 43.9283 84.4117 43.611C84.1131 43.2937 83.8821 42.9087 83.7187 42.456C83.5601 42.0033 83.4807 41.497 83.4807 40.937C83.4807 40.377 83.5601 39.873 83.7187 39.425C83.8821 38.9723 84.1131 38.5873 84.4117 38.27C84.7104 37.948 85.0697 37.703 85.4897 37.535C85.9144 37.3623 86.3904 37.276 86.9177 37.276ZM86.9177 43.534C87.5897 43.534 88.0914 43.3077 88.4227 42.855C88.7541 42.4023 88.9197 41.7653 88.9197 40.944C88.9197 40.1227 88.7541 39.4857 88.4227 39.033C88.0914 38.5757 87.5897 38.347 86.9177 38.347C86.2364 38.347 85.7277 38.5757 85.3917 39.033C85.0604 39.4857 84.8947 40.1227 84.8947 40.944C84.8947 41.7653 85.0604 42.4023 85.3917 42.855C85.7277 43.3077 86.2364 43.534 86.9177 43.534ZM93.9467 44.612C93.3727 44.612 92.9294 44.451 92.6167 44.129C92.3087 43.807 92.1547 43.3473 92.1547 42.75V38.494H91.3287C91.2494 38.494 91.1817 38.4707 91.1257 38.424C91.0744 38.3727 91.0487 38.298 91.0487 38.2V37.647L92.2037 37.486L92.5117 35.365C92.5304 35.2857 92.5654 35.225 92.6167 35.183C92.6727 35.1363 92.7427 35.113 92.8267 35.113H93.5197V37.5H95.5357V38.494H93.5197V42.659C93.5197 42.939 93.5874 43.149 93.7227 43.289C93.8627 43.4243 94.0401 43.492 94.2547 43.492C94.3807 43.492 94.4881 43.4757 94.5767 43.443C94.6701 43.4103 94.7494 43.3753 94.8147 43.338C94.8801 43.296 94.9361 43.2587 94.9827 43.226C95.0294 43.1933 95.0714 43.177 95.1087 43.177C95.1554 43.177 95.1904 43.1887 95.2137 43.212C95.2417 43.2307 95.2697 43.2633 95.2977 43.31L95.7037 43.968C95.4797 44.1733 95.2137 44.332 94.9057 44.444C94.5977 44.556 94.2781 44.612 93.9467 44.612ZM104.156 41.343C103.601 41.3617 103.129 41.406 102.742 41.476C102.355 41.5413 102.04 41.63 101.797 41.742C101.554 41.854 101.379 41.987 101.272 42.141C101.165 42.2903 101.111 42.4583 101.111 42.645C101.111 42.8223 101.139 42.9763 101.195 43.107C101.256 43.233 101.335 43.338 101.433 43.422C101.536 43.5013 101.655 43.5597 101.79 43.597C101.925 43.6343 102.072 43.653 102.231 43.653C102.441 43.653 102.632 43.632 102.805 43.59C102.982 43.548 103.148 43.4897 103.302 43.415C103.456 43.3357 103.603 43.24 103.743 43.128C103.883 43.016 104.021 42.8877 104.156 42.743V41.343ZM100.152 38.382C100.549 38.004 100.978 37.7217 101.44 37.535C101.907 37.3483 102.418 37.255 102.973 37.255C103.379 37.255 103.738 37.3227 104.051 37.458C104.364 37.5887 104.627 37.773 104.842 38.011C105.057 38.249 105.218 38.5337 105.325 38.865C105.437 39.1963 105.493 39.5627 105.493 39.964V44.5H104.884C104.749 44.5 104.646 44.479 104.576 44.437C104.506 44.3903 104.45 44.3063 104.408 44.185L104.261 43.562C104.079 43.73 103.899 43.8793 103.722 44.01C103.545 44.136 103.358 44.2457 103.162 44.339C102.971 44.4277 102.765 44.4953 102.546 44.542C102.327 44.5887 102.084 44.612 101.818 44.612C101.538 44.612 101.274 44.5747 101.027 44.5C100.784 44.4207 100.572 44.3017 100.39 44.143C100.208 43.9843 100.063 43.786 99.956 43.548C99.8533 43.31 99.802 43.0323 99.802 42.715C99.802 42.435 99.8767 42.1667 100.026 41.91C100.18 41.6487 100.427 41.4153 100.768 41.21C101.113 41.0047 101.561 40.8367 102.112 40.706C102.667 40.5753 103.349 40.5007 104.156 40.482V39.964C104.156 39.4273 104.042 39.026 103.813 38.76C103.584 38.494 103.248 38.361 102.805 38.361C102.506 38.361 102.254 38.3983 102.049 38.473C101.848 38.5477 101.673 38.6317 101.524 38.725C101.379 38.8137 101.251 38.8953 101.139 38.97C101.032 39.0447 100.92 39.082 100.803 39.082C100.71 39.082 100.628 39.0563 100.558 39.005C100.493 38.9537 100.439 38.893 100.397 38.823L100.152 38.382ZM112.149 38.753C112.378 38.2863 112.653 37.92 112.975 37.654C113.297 37.388 113.685 37.255 114.137 37.255C114.291 37.255 114.436 37.2737 114.571 37.311C114.711 37.3437 114.833 37.395 114.935 37.465L114.844 38.494C114.812 38.62 114.735 38.683 114.613 38.683C114.548 38.683 114.45 38.6713 114.319 38.648C114.189 38.62 114.049 38.606 113.899 38.606C113.68 38.606 113.486 38.6387 113.318 38.704C113.15 38.7647 112.999 38.858 112.863 38.984C112.733 39.1053 112.616 39.257 112.513 39.439C112.411 39.6163 112.315 39.8193 112.226 40.048V44.5H110.861V37.388H111.645C111.795 37.388 111.895 37.416 111.946 37.472C112.002 37.5233 112.042 37.6167 112.065 37.752L112.149 38.753ZM118.76 37.276C119.282 37.276 119.754 37.3623 120.174 37.535C120.598 37.703 120.958 37.948 121.252 38.27C121.55 38.5873 121.779 38.9723 121.938 39.425C122.096 39.873 122.176 40.377 122.176 40.937C122.176 41.497 122.096 42.0033 121.938 42.456C121.779 42.9087 121.55 43.2937 121.252 43.611C120.958 43.9283 120.598 44.1733 120.174 44.346C119.754 44.514 119.282 44.598 118.76 44.598C118.232 44.598 117.756 44.514 117.332 44.346C116.912 44.1733 116.552 43.9283 116.254 43.611C115.955 43.2937 115.724 42.9087 115.561 42.456C115.402 42.0033 115.323 41.497 115.323 40.937C115.323 40.377 115.402 39.873 115.561 39.425C115.724 38.9723 115.955 38.5873 116.254 38.27C116.552 37.948 116.912 37.703 117.332 37.535C117.756 37.3623 118.232 37.276 118.76 37.276ZM118.76 43.534C119.432 43.534 119.933 43.3077 120.265 42.855C120.596 42.4023 120.762 41.7653 120.762 40.944C120.762 40.1227 120.596 39.4857 120.265 39.033C119.933 38.5757 119.432 38.347 118.76 38.347C118.078 38.347 117.57 38.5757 117.234 39.033C116.902 39.4857 116.737 40.1227 116.737 40.944C116.737 41.7653 116.902 42.4023 117.234 42.855C117.57 43.3077 118.078 43.534 118.76 43.534ZM125.064 42.75C125.288 43.044 125.531 43.2493 125.792 43.366C126.054 43.4827 126.338 43.541 126.646 43.541C127.281 43.541 127.769 43.3147 128.109 42.862C128.455 42.4093 128.627 41.7257 128.627 40.811C128.627 39.9663 128.476 39.348 128.172 38.956C127.869 38.5593 127.44 38.361 126.884 38.361C126.492 38.361 126.152 38.4497 125.862 38.627C125.578 38.8043 125.312 39.0563 125.064 39.383V42.75ZM125.064 38.368C125.358 38.0413 125.692 37.7777 126.065 37.577C126.439 37.3763 126.863 37.276 127.339 37.276C127.755 37.276 128.128 37.3577 128.459 37.521C128.795 37.6797 129.08 37.9107 129.313 38.214C129.547 38.5127 129.726 38.8767 129.852 39.306C129.978 39.7353 130.041 40.2207 130.041 40.762C130.041 41.336 129.969 41.8587 129.824 42.33C129.684 42.8013 129.481 43.205 129.215 43.541C128.954 43.877 128.634 44.1383 128.256 44.325C127.878 44.507 127.454 44.598 126.982 44.598C126.754 44.598 126.544 44.5747 126.352 44.528C126.161 44.486 125.984 44.423 125.82 44.339C125.662 44.255 125.515 44.1523 125.379 44.031C125.244 43.9097 125.116 43.772 124.994 43.618L124.931 44.213C124.894 44.4043 124.777 44.5 124.581 44.5H123.699V34.168H125.064V38.368ZM134.592 37.276C135.114 37.276 135.586 37.3623 136.006 37.535C136.43 37.703 136.79 37.948 137.084 38.27C137.382 38.5873 137.611 38.9723 137.77 39.425C137.928 39.873 138.008 40.377 138.008 40.937C138.008 41.497 137.928 42.0033 137.77 42.456C137.611 42.9087 137.382 43.2937 137.084 43.611C136.79 43.9283 136.43 44.1733 136.006 44.346C135.586 44.514 135.114 44.598 134.592 44.598C134.064 44.598 133.588 44.514 133.164 44.346C132.744 44.1733 132.384 43.9283 132.086 43.611C131.787 43.2937 131.556 42.9087 131.393 42.456C131.234 42.0033 131.155 41.497 131.155 40.937C131.155 40.377 131.234 39.873 131.393 39.425C131.556 38.9723 131.787 38.5873 132.086 38.27C132.384 37.948 132.744 37.703 133.164 37.535C133.588 37.3623 134.064 37.276 134.592 37.276ZM134.592 43.534C135.264 43.534 135.765 43.3077 136.097 42.855C136.428 42.4023 136.594 41.7653 136.594 40.944C136.594 40.1227 136.428 39.4857 136.097 39.033C135.765 38.5757 135.264 38.347 134.592 38.347C133.91 38.347 133.402 38.5757 133.066 39.033C132.734 39.4857 132.569 40.1227 132.569 40.944C132.569 41.7653 132.734 42.4023 133.066 42.855C133.402 43.3077 133.91 43.534 134.592 43.534ZM141.621 44.612C141.047 44.612 140.603 44.451 140.291 44.129C139.983 43.807 139.829 43.3473 139.829 42.75V38.494H139.003C138.923 38.494 138.856 38.4707 138.8 38.424C138.748 38.3727 138.723 38.298 138.723 38.2V37.647L139.878 37.486L140.186 35.365C140.204 35.2857 140.239 35.225 140.291 35.183C140.347 35.1363 140.417 35.113 140.501 35.113H141.194V37.5H143.21V38.494H141.194V42.659C141.194 42.939 141.261 43.149 141.397 43.289C141.537 43.4243 141.714 43.492 141.929 43.492C142.055 43.492 142.162 43.4757 142.251 43.443C142.344 43.4103 142.423 43.3753 142.489 43.338C142.554 43.296 142.61 43.2587 142.657 43.226C142.703 43.1933 142.745 43.177 142.783 43.177C142.829 43.177 142.864 43.1887 142.888 43.212C142.916 43.2307 142.944 43.2633 142.972 43.31L143.378 43.968C143.154 44.1733 142.888 44.332 142.58 44.444C142.272 44.556 141.952 44.612 141.621 44.612Z" fill="#303030"/>
<g clip-path="url(#clip0_277_55114)">
<path d="M276.306 26.2122C276.305 25.9873 276.3 25.7637 276.29 25.5411V12.8511L272.782 16.3594C269.911 12.8448 265.543 10.6 260.65 10.6C255.558 10.6 251.035 13.0303 248.176 16.7939L253.926 22.6049C254.49 21.5626 255.29 20.6675 256.256 19.9914C257.26 19.2079 258.682 18.5674 260.65 18.5674C260.888 18.5674 261.071 18.5951 261.206 18.6475C263.644 18.8399 265.757 20.1854 267.001 22.1382L262.931 26.2087C268.087 26.1885 273.911 26.1766 276.306 26.2113" fill="#1C3AA9"/>
<path d="M260.559 10.6006C260.334 10.6013 260.11 10.6065 259.887 10.6166H247.197L250.706 14.1249C247.191 16.9962 244.946 21.3642 244.946 26.2567C244.946 31.3482 247.377 35.8715 251.14 38.7309L256.951 32.9804C255.909 32.4169 255.014 31.6163 254.338 30.651C253.554 29.6471 252.914 28.2246 252.914 26.2569C252.914 26.0192 252.941 25.8357 252.994 25.7009C253.186 23.2629 254.532 21.1496 256.485 19.9052L260.555 23.9757C260.535 18.82 260.523 12.9956 260.558 10.601" fill="#4285F4"/>
<path d="M244.947 26.2562C244.948 26.4811 244.953 26.7047 244.963 26.9273V39.6173L248.471 36.1091C251.342 39.6237 255.71 41.8685 260.603 41.8685C265.694 41.8685 270.218 39.4382 273.077 35.6745L267.327 29.8636C266.763 30.9058 265.963 31.801 264.997 32.4771C263.993 33.2605 262.571 33.9011 260.603 33.9011C260.365 33.9011 260.182 33.8733 260.047 33.821C257.609 33.6285 255.496 32.2831 254.252 30.3302L258.322 26.2597C253.166 26.28 247.342 26.2918 244.947 26.2571" fill="#ABABAB"/>
<path d="M247.589 47.9316C247.207 47.9316 246.865 48.0039 246.563 48.1486C246.26 48.2899 246.004 48.4921 245.794 48.7551C245.586 49.0181 245.427 49.337 245.315 49.7118C245.207 50.0833 245.152 50.4992 245.152 50.9594V52.2859C245.152 52.7495 245.207 53.167 245.315 53.5385C245.427 53.91 245.585 54.2272 245.789 54.4902C245.992 54.7533 246.239 54.9554 246.528 55.0968C246.818 55.2382 247.143 55.3089 247.505 55.3089C247.876 55.3089 248.202 55.2546 248.481 55.1461C248.764 55.0376 249.001 54.8815 249.191 54.6777C249.382 54.4705 249.528 54.2207 249.63 53.9281C249.735 53.6355 249.798 53.3035 249.818 52.9319H248.905C248.882 53.218 248.843 53.4629 248.787 53.6667C248.731 53.8672 248.649 54.0333 248.54 54.1648C248.435 54.293 248.297 54.3883 248.126 54.4508C247.958 54.51 247.751 54.5396 247.505 54.5396C247.242 54.5396 247.018 54.482 246.834 54.367C246.65 54.2486 246.5 54.0875 246.385 53.8837C246.274 53.6798 246.191 53.4415 246.139 53.1686C246.089 52.8958 246.065 52.6015 246.065 52.2859V50.9495C246.065 50.6109 246.094 50.3035 246.154 50.0274C246.216 49.7512 246.31 49.5162 246.435 49.3222C246.56 49.1282 246.717 48.9786 246.908 48.8734C247.099 48.7649 247.326 48.7107 247.589 48.7107C247.809 48.7107 247.998 48.7435 248.156 48.8093C248.313 48.8718 248.445 48.9704 248.55 49.1052C248.655 49.2367 248.736 49.4044 248.792 49.6082C248.848 49.812 248.885 50.0553 248.905 50.338H249.818C249.801 49.9501 249.74 49.6065 249.635 49.3074C249.53 49.0082 249.384 48.7567 249.196 48.5529C249.009 48.349 248.78 48.1945 248.511 48.0893C248.244 47.9841 247.937 47.9315 247.589 47.9315L247.589 47.9316ZM269.859 47.9316C269.477 47.9316 269.135 48.0039 268.833 48.1486C268.53 48.2899 268.274 48.4921 268.064 48.7551C267.857 49.0181 267.697 49.337 267.585 49.7118C267.477 50.0833 267.423 50.4992 267.423 50.9594V52.2859C267.423 52.7495 267.477 53.167 267.585 53.5385C267.697 53.91 267.855 54.2272 268.059 54.4902C268.263 54.7533 268.509 54.9554 268.798 55.0968C269.088 55.2382 269.413 55.3089 269.775 55.3089C270.146 55.3089 270.472 55.2546 270.751 55.1461C271.034 55.0376 271.271 54.8815 271.461 54.6777C271.652 54.4705 271.798 54.2207 271.9 53.9281C272.005 53.6355 272.068 53.3035 272.088 52.9319H271.175C271.152 53.218 271.113 53.4629 271.057 53.6667C271.001 53.8672 270.919 54.0333 270.81 54.1648C270.705 54.293 270.567 54.3883 270.396 54.4508C270.229 54.51 270.021 54.5396 269.775 54.5396C269.512 54.5396 269.288 54.482 269.104 54.367C268.92 54.2486 268.77 54.0875 268.655 53.8837C268.544 53.6798 268.461 53.4415 268.409 53.1686C268.36 52.8958 268.335 52.6015 268.335 52.2859V50.9495C268.335 50.6109 268.365 50.3035 268.424 50.0274C268.486 49.7512 268.58 49.5162 268.705 49.3222C268.83 49.1282 268.987 48.9786 269.178 48.8734C269.369 48.7649 269.596 48.7107 269.859 48.7107C270.079 48.7107 270.268 48.7435 270.426 48.8093C270.584 48.8718 270.715 48.9704 270.82 49.1052C270.925 49.2367 271.006 49.4044 271.062 49.6082C271.118 49.812 271.156 50.0553 271.175 50.338H272.088C272.071 49.9501 272.01 49.6065 271.905 49.3074C271.8 49.0082 271.654 48.7567 271.466 48.5529C271.279 48.349 271.05 48.1945 270.781 48.0893C270.515 47.9841 270.207 47.9315 269.859 47.9315L269.859 47.9316ZM252.787 48.0302L250.474 55.2102H251.401L251.958 53.3363H254.384L254.951 55.2102H255.878L253.561 48.0302H252.787ZM256.855 48.0302V55.2102H257.757V52.3993H259.143C259.488 52.3993 259.794 52.3516 260.06 52.2563C260.326 52.1577 260.55 52.0163 260.731 51.8322C260.915 51.6481 261.053 51.4213 261.145 51.1517C261.24 50.8788 261.288 50.5698 261.288 50.2246C261.288 49.9057 261.24 49.6131 261.145 49.3468C261.053 49.0772 260.916 48.8455 260.736 48.6515C260.555 48.4542 260.33 48.3014 260.06 48.1929C259.794 48.0844 259.488 48.0301 259.143 48.0301L256.855 48.0302ZM261.978 48.0302V48.8094H263.862V55.2102H264.765V48.8094H266.653V48.0302H261.978ZM273.306 48.0302V55.2102H274.208V51.8914H277.098V55.2102H278.005V48.0302H277.098V51.1173H274.208V48.0302H273.306ZM281.428 48.0302L279.115 55.2102H280.042L280.599 53.3363H283.025L283.592 55.2102H284.519L282.202 48.0302H281.428ZM257.757 48.8094H259.143C259.363 48.8094 259.55 48.8488 259.705 48.9277C259.863 49.0066 259.991 49.1118 260.09 49.2433C260.191 49.3748 260.265 49.5277 260.311 49.7019C260.361 49.8729 260.385 50.0504 260.385 50.2345C260.385 50.4384 260.361 50.6257 260.311 50.7967C260.265 50.9644 260.191 51.1107 260.09 51.2356C259.991 51.3572 259.863 51.4526 259.705 51.5216C259.55 51.5906 259.363 51.6252 259.143 51.6252H257.757V48.8094ZM253.171 49.2927L254.152 52.5572H252.195L253.171 49.2927ZM281.812 49.2927L282.793 52.5572H280.836L281.812 49.2927ZM239.334 49.7759C239.107 49.7759 238.912 49.8335 238.747 49.9485C238.586 50.0636 238.451 50.2198 238.343 50.417L238.328 49.8745H237.48V55.2102H238.353V51.3933C238.435 51.1664 238.552 50.9873 238.703 50.8557C238.858 50.7242 239.053 50.6585 239.29 50.6585C239.365 50.6585 239.433 50.6618 239.492 50.6683C239.551 50.6717 239.615 50.6798 239.684 50.693L239.679 49.8448C239.666 49.8382 239.645 49.8316 239.615 49.8251C239.589 49.8152 239.559 49.8069 239.527 49.8004C239.494 49.7938 239.459 49.7889 239.423 49.7856C239.39 49.779 239.361 49.7757 239.334 49.7757L239.334 49.7759ZM242.268 49.7759C242.015 49.7759 241.77 49.8203 241.534 49.9091C241.297 49.9978 241.086 50.1441 240.902 50.348C240.722 50.5485 240.575 50.8115 240.463 51.137C240.352 51.4592 240.296 51.8553 240.296 52.3254V52.9271C240.296 53.3347 240.343 53.6882 240.439 53.9873C240.534 54.2865 240.671 54.5347 240.848 54.732C241.029 54.9259 241.248 55.0706 241.504 55.1659C241.76 55.2613 242.048 55.3089 242.367 55.3089C242.597 55.3089 242.803 55.2859 242.983 55.2399C243.167 55.1939 243.33 55.1347 243.472 55.0624C243.613 54.9867 243.735 54.9013 243.837 54.8059C243.938 54.7106 244.026 54.612 244.098 54.51L243.644 53.9577C243.572 54.0465 243.495 54.1287 243.412 54.2043C243.33 54.2766 243.24 54.3407 243.141 54.3966C243.043 54.4492 242.934 54.4903 242.816 54.5199C242.697 54.5495 242.564 54.5643 242.416 54.5643C242.012 54.5643 241.701 54.4344 241.484 54.1747C241.271 53.915 241.164 53.4991 241.164 52.9271V52.8038H244.142V52.2959C244.142 51.8882 244.108 51.5282 244.039 51.2159C243.97 50.9036 243.86 50.6406 243.708 50.4269C243.557 50.2132 243.363 50.0521 243.126 49.9436C242.89 49.8318 242.604 49.7759 242.268 49.7759L242.268 49.7759ZM242.268 50.5255C242.459 50.5255 242.617 50.56 242.742 50.6291C242.867 50.6981 242.965 50.7951 243.038 50.92C243.113 51.0449 243.167 51.1945 243.2 51.3688C243.237 51.5397 243.26 51.7288 243.269 51.9359V52.0542H241.169C241.182 51.755 241.218 51.5068 241.277 51.3096C241.336 51.1123 241.414 50.9561 241.509 50.8411C241.608 50.7228 241.721 50.6406 241.849 50.5945C241.977 50.5485 242.117 50.5255 242.268 50.5255L242.268 50.5255Z" fill="#A6A6A6"/>
</g>
<path d="M235.98 64.8789H234.5V64.1016H235.98C236.238 64.1016 236.447 64.0599 236.605 63.9766C236.764 63.8932 236.88 63.7786 236.953 63.6328C237.029 63.4844 237.066 63.3151 237.066 63.125C237.066 62.9453 237.029 62.7773 236.953 62.6211C236.88 62.4622 236.764 62.3346 236.605 62.2383C236.447 62.1419 236.238 62.0938 235.98 62.0938H234.801V67H233.82V61.3125H235.98C236.421 61.3125 236.794 61.3906 237.102 61.5469C237.411 61.7005 237.647 61.9141 237.809 62.1875C237.97 62.4583 238.051 62.7682 238.051 63.1172C238.051 63.4844 237.97 63.7995 237.809 64.0625C237.647 64.3255 237.411 64.5273 237.102 64.668C236.794 64.8086 236.421 64.8789 235.98 64.8789ZM239.781 63.5781V67H238.84V62.7734H239.738L239.781 63.5781ZM241.074 62.7461L241.066 63.6211C241.009 63.6107 240.947 63.6029 240.879 63.5977C240.814 63.5924 240.749 63.5898 240.684 63.5898C240.522 63.5898 240.38 63.6133 240.258 63.6602C240.135 63.7044 240.033 63.7695 239.949 63.8555C239.868 63.9388 239.806 64.0404 239.762 64.1602C239.717 64.2799 239.691 64.4141 239.684 64.5625L239.469 64.5781C239.469 64.3125 239.495 64.0664 239.547 63.8398C239.599 63.6133 239.677 63.4141 239.781 63.2422C239.888 63.0703 240.021 62.9362 240.18 62.8398C240.341 62.7435 240.527 62.6953 240.738 62.6953C240.796 62.6953 240.857 62.7005 240.922 62.7109C240.99 62.7214 241.04 62.7331 241.074 62.7461ZM242.672 62.7734V67H241.727V62.7734H242.672ZM241.664 61.6641C241.664 61.5208 241.711 61.4023 241.805 61.3086C241.901 61.2122 242.034 61.1641 242.203 61.1641C242.37 61.1641 242.501 61.2122 242.598 61.3086C242.694 61.4023 242.742 61.5208 242.742 61.6641C242.742 61.8047 242.694 61.9219 242.598 62.0156C242.501 62.1094 242.37 62.1562 242.203 62.1562C242.034 62.1562 241.901 62.1094 241.805 62.0156C241.711 61.9219 241.664 61.8047 241.664 61.6641ZM245.078 66.2539L246.113 62.7734H247.09L245.621 67H245.012L245.078 66.2539ZM244.285 62.7734L245.34 66.2695L245.391 67H244.781L243.305 62.7734H244.285ZM249.992 66.1523V64.1367C249.992 63.9857 249.965 63.8555 249.91 63.7461C249.855 63.6367 249.772 63.5521 249.66 63.4922C249.551 63.4323 249.413 63.4023 249.246 63.4023C249.092 63.4023 248.96 63.4284 248.848 63.4805C248.736 63.5326 248.648 63.6029 248.586 63.6914C248.523 63.7799 248.492 63.8802 248.492 63.9922H247.555C247.555 63.8255 247.595 63.6641 247.676 63.5078C247.757 63.3516 247.874 63.2122 248.027 63.0898C248.181 62.9674 248.365 62.8711 248.578 62.8008C248.792 62.7305 249.031 62.6953 249.297 62.6953C249.615 62.6953 249.896 62.7487 250.141 62.8555C250.388 62.9622 250.582 63.1237 250.723 63.3398C250.866 63.5534 250.938 63.8216 250.938 64.1445V66.0234C250.938 66.2161 250.951 66.3893 250.977 66.543C251.005 66.694 251.046 66.8255 251.098 66.9375V67H250.133C250.089 66.8984 250.053 66.7695 250.027 66.6133C250.004 66.4544 249.992 66.3008 249.992 66.1523ZM250.129 64.4297L250.137 65.0117H249.461C249.286 65.0117 249.133 65.0286 249 65.0625C248.867 65.0938 248.757 65.1406 248.668 65.2031C248.579 65.2656 248.513 65.3411 248.469 65.4297C248.424 65.5182 248.402 65.6185 248.402 65.7305C248.402 65.8424 248.428 65.9453 248.48 66.0391C248.533 66.1302 248.608 66.2018 248.707 66.2539C248.809 66.306 248.931 66.332 249.074 66.332C249.267 66.332 249.435 66.293 249.578 66.2148C249.724 66.1341 249.839 66.0365 249.922 65.9219C250.005 65.8047 250.049 65.694 250.055 65.5898L250.359 66.0078C250.328 66.1146 250.275 66.2292 250.199 66.3516C250.124 66.474 250.025 66.5911 249.902 66.7031C249.783 66.8125 249.638 66.9023 249.469 66.9727C249.302 67.043 249.109 67.0781 248.891 67.0781C248.615 67.0781 248.368 67.0234 248.152 66.9141C247.936 66.8021 247.767 66.6523 247.645 66.4648C247.522 66.2747 247.461 66.0599 247.461 65.8203C247.461 65.5964 247.503 65.3984 247.586 65.2266C247.672 65.0521 247.797 64.9062 247.961 64.7891C248.128 64.6719 248.331 64.5833 248.57 64.5234C248.81 64.4609 249.083 64.4297 249.391 64.4297H250.129ZM253.648 66.3281C253.802 66.3281 253.94 66.2982 254.062 66.2383C254.188 66.1758 254.288 66.0898 254.363 65.9805C254.441 65.8711 254.484 65.7448 254.492 65.6016H255.379C255.374 65.875 255.293 66.1237 255.137 66.3477C254.98 66.5716 254.773 66.75 254.516 66.8828C254.258 67.013 253.973 67.0781 253.66 67.0781C253.337 67.0781 253.056 67.0234 252.816 66.9141C252.577 66.8021 252.378 66.6484 252.219 66.4531C252.06 66.2578 251.94 66.0326 251.859 65.7773C251.781 65.5221 251.742 65.2487 251.742 64.957V64.8203C251.742 64.5286 251.781 64.2552 251.859 64C251.94 63.7422 252.06 63.5156 252.219 63.3203C252.378 63.125 252.577 62.9727 252.816 62.8633C253.056 62.7513 253.336 62.6953 253.656 62.6953C253.995 62.6953 254.292 62.763 254.547 62.8984C254.802 63.0312 255.003 63.2174 255.148 63.457C255.297 63.694 255.374 63.9701 255.379 64.2852H254.492C254.484 64.1289 254.445 63.9883 254.375 63.8633C254.307 63.7357 254.211 63.6341 254.086 63.5586C253.964 63.4831 253.816 63.4453 253.645 63.4453C253.454 63.4453 253.297 63.4844 253.172 63.5625C253.047 63.638 252.949 63.7422 252.879 63.875C252.809 64.0052 252.758 64.1523 252.727 64.3164C252.698 64.4779 252.684 64.6458 252.684 64.8203V64.957C252.684 65.1315 252.698 65.3008 252.727 65.4648C252.755 65.6289 252.805 65.776 252.875 65.9062C252.948 66.0339 253.047 66.1367 253.172 66.2148C253.297 66.2904 253.456 66.3281 253.648 66.3281ZM257.328 66.5391L258.477 62.7734H259.484L257.789 67.6445C257.75 67.7487 257.699 67.862 257.637 67.9844C257.574 68.1068 257.492 68.2227 257.391 68.332C257.292 68.444 257.168 68.5339 257.02 68.6016C256.871 68.6719 256.691 68.707 256.48 68.707C256.397 68.707 256.316 68.6992 256.238 68.6836C256.163 68.6706 256.091 68.6562 256.023 68.6406L256.02 67.9219C256.046 67.9245 256.077 67.9271 256.113 67.9297C256.152 67.9323 256.184 67.9336 256.207 67.9336C256.363 67.9336 256.493 67.9141 256.598 67.875C256.702 67.8385 256.786 67.7786 256.852 67.6953C256.919 67.612 256.977 67.5 257.023 67.3594L257.328 66.5391ZM256.68 62.7734L257.684 65.9375L257.852 66.9297L257.199 67.0977L255.664 62.7734H256.68ZM263.91 64.1953V64.9453H261.844V64.1953H263.91ZM268.973 61.3125V67H268V61.3125H268.973ZM270.758 61.3125V62.0938H266.23V61.3125H270.758ZM272.902 67.0781C272.59 67.0781 272.307 67.0273 272.055 66.9258C271.805 66.8216 271.591 66.6771 271.414 66.4922C271.24 66.3073 271.105 66.0898 271.012 65.8398C270.918 65.5898 270.871 65.3203 270.871 65.0312V64.875C270.871 64.5443 270.919 64.2448 271.016 63.9766C271.112 63.7083 271.246 63.4792 271.418 63.2891C271.59 63.0964 271.793 62.9492 272.027 62.8477C272.262 62.7461 272.516 62.6953 272.789 62.6953C273.091 62.6953 273.355 62.7461 273.582 62.8477C273.809 62.9492 273.996 63.0924 274.145 63.2773C274.296 63.4596 274.408 63.6771 274.48 63.9297C274.556 64.1823 274.594 64.4609 274.594 64.7656V65.168H271.328V64.4922H273.664V64.418C273.659 64.2487 273.625 64.0898 273.562 63.9414C273.503 63.793 273.41 63.6732 273.285 63.582C273.16 63.4909 272.993 63.4453 272.785 63.4453C272.629 63.4453 272.49 63.4792 272.367 63.5469C272.247 63.612 272.147 63.707 272.066 63.832C271.986 63.957 271.923 64.1081 271.879 64.2852C271.837 64.4596 271.816 64.6562 271.816 64.875V65.0312C271.816 65.2161 271.841 65.388 271.891 65.5469C271.943 65.7031 272.018 65.8398 272.117 65.957C272.216 66.0742 272.336 66.1667 272.477 66.2344C272.617 66.2995 272.777 66.332 272.957 66.332C273.184 66.332 273.385 66.2865 273.562 66.1953C273.74 66.1042 273.893 65.9753 274.023 65.8086L274.52 66.2891C274.428 66.4219 274.31 66.5495 274.164 66.6719C274.018 66.7917 273.84 66.8893 273.629 66.9648C273.421 67.0404 273.178 67.0781 272.902 67.0781ZM276.273 63.5781V67H275.332V62.7734H276.23L276.273 63.5781ZM277.566 62.7461L277.559 63.6211C277.501 63.6107 277.439 63.6029 277.371 63.5977C277.306 63.5924 277.241 63.5898 277.176 63.5898C277.014 63.5898 276.872 63.6133 276.75 63.6602C276.628 63.7044 276.525 63.7695 276.441 63.8555C276.361 63.9388 276.298 64.0404 276.254 64.1602C276.21 64.2799 276.184 64.4141 276.176 64.5625L275.961 64.5781C275.961 64.3125 275.987 64.0664 276.039 63.8398C276.091 63.6133 276.169 63.4141 276.273 63.2422C276.38 63.0703 276.513 62.9362 276.672 62.8398C276.833 62.7435 277.02 62.6953 277.23 62.6953C277.288 62.6953 277.349 62.7005 277.414 62.7109C277.482 62.7214 277.533 62.7331 277.566 62.7461ZM279.098 63.6328V67H278.156V62.7734H279.043L279.098 63.6328ZM278.945 64.7305L278.625 64.7266C278.625 64.4349 278.661 64.1654 278.734 63.918C278.807 63.6706 278.914 63.4557 279.055 63.2734C279.195 63.0885 279.37 62.9466 279.578 62.8477C279.789 62.7461 280.033 62.6953 280.309 62.6953C280.501 62.6953 280.677 62.724 280.836 62.7812C280.997 62.8359 281.137 62.9232 281.254 63.043C281.374 63.1628 281.465 63.3164 281.527 63.5039C281.592 63.6914 281.625 63.918 281.625 64.1836V67H280.684V64.2656C280.684 64.0599 280.652 63.8984 280.59 63.7812C280.53 63.6641 280.443 63.5807 280.328 63.5312C280.216 63.4792 280.082 63.4531 279.926 63.4531C279.749 63.4531 279.598 63.487 279.473 63.5547C279.35 63.6224 279.25 63.7148 279.172 63.832C279.094 63.9492 279.036 64.0846 279 64.2383C278.964 64.3919 278.945 64.556 278.945 64.7305ZM281.566 64.4805L281.125 64.5781C281.125 64.3229 281.16 64.082 281.23 63.8555C281.303 63.6263 281.409 63.4258 281.547 63.2539C281.688 63.0794 281.861 62.9427 282.066 62.8438C282.272 62.7448 282.508 62.6953 282.773 62.6953C282.99 62.6953 283.182 62.7253 283.352 62.7852C283.523 62.8424 283.669 62.9336 283.789 63.0586C283.909 63.1836 284 63.3464 284.062 63.5469C284.125 63.7448 284.156 63.9844 284.156 64.2656V67H283.211V64.2617C283.211 64.0482 283.18 63.8828 283.117 63.7656C283.057 63.6484 282.971 63.5677 282.859 63.5234C282.747 63.4766 282.613 63.4531 282.457 63.4531C282.311 63.4531 282.182 63.4805 282.07 63.5352C281.961 63.5872 281.868 63.6615 281.793 63.7578C281.717 63.8516 281.66 63.9596 281.621 64.082C281.585 64.2044 281.566 64.3372 281.566 64.4805ZM287.496 65.8555C287.496 65.7617 287.473 65.6771 287.426 65.6016C287.379 65.5234 287.289 65.4531 287.156 65.3906C287.026 65.3281 286.833 65.2708 286.578 65.2188C286.354 65.1693 286.148 65.1107 285.961 65.043C285.776 64.9727 285.617 64.888 285.484 64.7891C285.352 64.6901 285.249 64.5729 285.176 64.4375C285.103 64.3021 285.066 64.1458 285.066 63.9688C285.066 63.7969 285.104 63.6341 285.18 63.4805C285.255 63.3268 285.363 63.1914 285.504 63.0742C285.645 62.957 285.815 62.8646 286.016 62.7969C286.219 62.7292 286.445 62.6953 286.695 62.6953C287.049 62.6953 287.353 62.7552 287.605 62.875C287.861 62.9922 288.056 63.1523 288.191 63.3555C288.327 63.556 288.395 63.7826 288.395 64.0352H287.453C287.453 63.9232 287.424 63.819 287.367 63.7227C287.312 63.6237 287.229 63.5443 287.117 63.4844C287.005 63.4219 286.865 63.3906 286.695 63.3906C286.534 63.3906 286.4 63.4167 286.293 63.4688C286.189 63.5182 286.111 63.5833 286.059 63.6641C286.009 63.7448 285.984 63.8333 285.984 63.9297C285.984 64 285.997 64.0638 286.023 64.1211C286.052 64.1758 286.099 64.2266 286.164 64.2734C286.229 64.3177 286.318 64.3594 286.43 64.3984C286.544 64.4375 286.688 64.4753 286.859 64.5117C287.182 64.5794 287.46 64.6667 287.691 64.7734C287.926 64.8776 288.105 65.013 288.23 65.1797C288.355 65.3438 288.418 65.5521 288.418 65.8047C288.418 65.9922 288.378 66.1641 288.297 66.3203C288.219 66.474 288.104 66.6081 287.953 66.7227C287.802 66.8346 287.621 66.9219 287.41 66.9844C287.202 67.0469 286.967 67.0781 286.707 67.0781C286.324 67.0781 286 67.0104 285.734 66.875C285.469 66.737 285.267 66.5612 285.129 66.3477C284.993 66.1315 284.926 65.9076 284.926 65.6758H285.836C285.846 65.8503 285.895 65.9896 285.98 66.0938C286.069 66.1953 286.178 66.2695 286.309 66.3164C286.441 66.3607 286.578 66.3828 286.719 66.3828C286.888 66.3828 287.03 66.3607 287.145 66.3164C287.259 66.2695 287.346 66.207 287.406 66.1289C287.466 66.0482 287.496 65.957 287.496 65.8555Z" fill="#A6A6A6"/>
<rect x="2.5" y="1.5" width="297" height="75" rx="2.5" stroke="#D6D6D6"/>
</g>
<defs>
<filter id="filter0_d_277_55114" x="0" y="0" width="302" height="80" filterUnits="userSpaceOnUse" color-interpolation-filters="sRGB">
<feFlood flood-opacity="0" result="BackgroundImageFix"/>
<feColorMatrix in="SourceAlpha" type="matrix" values="0 0 0 0 0 0 0 0 0 0 0 0 0 0 0 0 0 0 127 0" result="hardAlpha"/>
<feOffset dy="1"/>
<feGaussianBlur stdDeviation="1"/>
<feColorMatrix type="matrix" values="0 0 0 0 0 0 0 0 0 0 0 0 0 0 0 0 0 0 0.1 0"/>
<feBlend mode="normal" in2="BackgroundImageFix" result="effect1_dropShadow_277_55114"/>
<feBlend mode="normal" in="SourceGraphic" in2="effect1_dropShadow_277_55114" result="shape"/>
</filter>
<clipPath id="clip0_277_55114">
<rect width="48" height="46" fill="white" transform="translate(237 10)"/>
</clipPath>
</defs>
</svg>
