<svg width="436" height="376" viewBox="0 0 436 376" fill="none" xmlns="http://www.w3.org/2000/svg">
<g filter="url(#filter0_d_2108_309)">
<path d="M87.0972 77.9715C87.3417 76.3609 87.799 74.9053 88.3875 73.5583C90.4864 66.9225 96.0401 61.5306 105.09 61.5306H138.728C143.077 53.1109 149.212 46.1171 156.521 41.2843H72.6284C72.6284 54.3649 60.8571 70.9347 47.7815 70.9347V118.887C60.8571 118.887 72.6284 126.29 72.6284 139.367H86.8322V102.61C81.4575 101.101 77.5144 96.1804 77.5144 90.3191C77.5144 84.3764 81.5886 79.3907 87.0972 77.9715Z" fill="url(#paint0_linear_2108_309)"/>
<path d="M221.399 61.5306H298.778C293.843 55.6795 290.581 48.0251 290.581 41.2843H203.603C210.911 46.1171 217.042 53.1109 221.399 61.5306Z" fill="url(#paint1_linear_2108_309)"/>
<path d="M31.4374 24.9402H332.216V61.5305H348.654V9H15V171.653H86.8321V155.715H31.4374V24.9402Z" fill="url(#paint2_linear_2108_309)"/>
<path d="M184.316 53.6681H180.201V61.5304H184.316V53.6681Z" fill="url(#paint3_linear_2108_309)"/>
<path d="M144.701 191.886H225.989C212.607 182.086 203.726 163.994 203.726 143.787C203.726 122.297 213.76 103.627 228.591 93.8116H144.701C144.701 106.892 132.927 123.465 119.851 123.465V171.412C132.927 171.412 144.701 178.817 144.701 191.886ZM162.353 130.08C169.407 130.08 175.126 135.806 175.126 142.858C175.126 149.907 169.407 155.625 162.353 155.625C155.299 155.625 149.587 149.907 149.587 142.858C149.587 135.806 155.299 130.08 162.353 130.08Z" fill="url(#paint4_linear_2108_309)"/>
<path d="M300.536 143.787C300.536 163.994 291.648 182.086 278.267 191.886H362.655C362.655 178.817 374.856 171.412 387.938 171.412V123.465C374.856 123.465 362.655 106.892 362.655 93.8116H275.669C290.495 103.627 300.536 122.297 300.536 143.787ZM345.429 130.08C352.487 130.08 358.202 135.806 358.202 142.858C358.202 149.907 352.487 155.625 345.429 155.625C338.382 155.625 332.657 149.907 332.657 142.858C332.657 135.806 338.382 130.08 345.429 130.08Z" fill="url(#paint5_linear_2108_309)"/>
<path d="M87.0662 61.5306V224.182H420.716V61.5306H87.0662ZM404.286 208.237H103.5V77.4673H404.286V208.237Z" fill="url(#paint6_linear_2108_309)"/>
<path d="M247.326 162.025C245.568 161.509 243.944 160.897 242.468 160.212C240.992 159.527 239.701 158.825 238.59 158.075C237.482 157.339 236.642 156.658 236.057 156.018L232.031 163.608C234.874 165.831 238.012 167.558 241.446 168.79C244.866 170.036 248.472 170.786 252.271 171.048V179.519H256.39V171.213C259.077 171.158 261.596 170.8 263.943 170.132C266.286 169.479 268.343 168.495 270.109 167.173C271.877 165.852 273.26 164.207 274.265 162.232C275.256 160.25 275.759 157.872 275.759 155.075C275.759 152.542 275.328 150.388 274.458 148.627C273.587 146.86 272.366 145.374 270.783 144.154C269.197 142.949 267.26 141.92 264.968 141.074C262.676 140.236 260.102 139.465 257.253 138.781L255.753 138.46V122.09C257.284 122.202 258.771 122.447 260.223 122.848C261.675 123.24 263.006 123.715 264.218 124.27C265.422 124.824 266.499 125.399 267.418 126.01C268.343 126.612 269.042 127.183 269.517 127.71L273.549 120.432C271.33 118.794 268.777 117.402 265.876 116.246C262.979 115.081 259.813 114.396 256.39 114.183V106.197H252.271V114.183C249.632 114.396 247.227 114.914 245.031 115.727C242.846 116.545 240.94 117.678 239.306 119.13C237.668 120.578 236.405 122.302 235.507 124.308C234.612 126.309 234.161 128.606 234.161 131.19C234.161 133.401 234.519 135.29 235.232 136.844C235.944 138.407 236.987 139.756 238.356 140.914C239.725 142.08 241.446 143.063 243.538 143.878C245.616 144.702 248.059 145.48 250.853 146.211C251.17 146.318 251.5 146.409 251.844 146.493C252.178 146.569 252.512 146.66 252.828 146.767V163.14C250.922 162.934 249.099 162.562 247.326 162.025ZM255.753 147.56C259.077 148.513 261.658 149.573 263.502 150.76C265.346 151.951 266.268 153.705 266.268 156.018C266.268 158.344 265.364 160.106 263.543 161.317C261.727 162.535 259.128 163.168 255.753 163.216V147.56ZM245.747 134.751C244.192 133.642 243.421 131.978 243.421 129.766C243.421 127.494 244.178 125.691 245.712 124.348C247.24 123.002 249.608 122.254 252.828 122.09V137.674C249.663 136.835 247.302 135.854 245.747 134.751Z" fill="url(#paint7_linear_2108_309)"/>
<g filter="url(#filter1_b_2108_309)">
<mask id="path-9-inside-1_2108_309" fill="white">
<path fill-rule="evenodd" clip-rule="evenodd" d="M150.571 319.38C144.481 311.126 140.151 301.518 138.121 291.504C137.851 290.557 137.445 289.61 136.497 288.663L106.05 258.757C103.344 256.05 101.855 252.397 101.855 248.608C101.855 244.819 103.344 241.165 106.05 238.459L106.185 238.323C111.734 232.91 120.8 232.91 126.348 238.459L126.483 238.594V248.608C126.483 251.314 128.784 253.615 131.49 253.615C134.332 253.615 136.497 251.314 136.497 248.608V159.161C136.497 152.53 141.91 147.253 148.405 147.253H153.277C159.908 147.253 165.185 152.666 165.185 159.161V248.608C165.185 251.314 167.485 253.615 170.192 253.615C172.898 253.615 175.199 251.314 175.199 248.608V128.443C175.199 121.813 180.612 116.535 187.107 116.535H191.978C194.414 116.535 196.444 117.212 198.338 118.294C201.721 120.459 203.887 124.248 203.887 128.443V248.608C203.887 251.314 206.187 253.615 208.893 253.615C211.6 253.615 213.9 251.314 213.9 248.608V150.365C213.9 143.735 219.313 138.457 225.808 138.457H230.68C233.792 138.457 236.769 139.675 239.07 141.975C241.37 144.14 242.588 147.253 242.588 150.365V163.221C242.588 163.762 242.588 164.168 242.723 164.574C242.588 165.386 242.588 166.333 242.588 167.28V248.608C242.588 251.314 244.889 253.615 247.595 253.615C248.948 253.615 250.166 253.073 251.113 252.126C251.197 252.126 251.229 252.074 251.273 252.003C251.3 251.959 251.332 251.907 251.384 251.855C251.468 251.855 251.5 251.804 251.544 251.732C251.571 251.688 251.603 251.636 251.655 251.585C251.722 251.517 251.756 251.449 251.79 251.382C251.824 251.314 251.858 251.246 251.925 251.179C252.061 251.044 252.196 250.908 252.196 250.773C252.196 250.705 252.23 250.638 252.264 250.57C252.298 250.502 252.331 250.435 252.331 250.367C252.331 250.232 252.365 250.096 252.399 249.961C252.433 249.826 252.467 249.69 252.467 249.555V167.551C252.467 160.92 257.879 155.643 264.375 155.643H269.246C274.794 155.643 279.395 159.432 280.749 164.439V164.709C281.019 165.656 281.155 166.604 281.155 167.551V187.714C281.019 188.12 281.019 188.526 281.019 189.067C281.019 189.473 281.019 190.014 281.155 190.42V276.484C281.155 292.181 276.283 306.931 267.081 319.38H150.571ZM130.543 329.258H278.313C285.214 329.258 290.762 334.806 290.762 341.708C290.762 348.609 285.214 354.157 278.313 354.157H130.543C123.642 354.157 118.094 348.609 118.094 341.708C118.094 334.806 123.642 329.258 130.543 329.258Z"/>
</mask>
<path fill-rule="evenodd" clip-rule="evenodd" d="M150.571 319.38C144.481 311.126 140.151 301.518 138.121 291.504C137.851 290.557 137.445 289.61 136.497 288.663L106.05 258.757C103.344 256.05 101.855 252.397 101.855 248.608C101.855 244.819 103.344 241.165 106.05 238.459L106.185 238.323C111.734 232.91 120.8 232.91 126.348 238.459L126.483 238.594V248.608C126.483 251.314 128.784 253.615 131.49 253.615C134.332 253.615 136.497 251.314 136.497 248.608V159.161C136.497 152.53 141.91 147.253 148.405 147.253H153.277C159.908 147.253 165.185 152.666 165.185 159.161V248.608C165.185 251.314 167.485 253.615 170.192 253.615C172.898 253.615 175.199 251.314 175.199 248.608V128.443C175.199 121.813 180.612 116.535 187.107 116.535H191.978C194.414 116.535 196.444 117.212 198.338 118.294C201.721 120.459 203.887 124.248 203.887 128.443V248.608C203.887 251.314 206.187 253.615 208.893 253.615C211.6 253.615 213.9 251.314 213.9 248.608V150.365C213.9 143.735 219.313 138.457 225.808 138.457H230.68C233.792 138.457 236.769 139.675 239.07 141.975C241.37 144.14 242.588 147.253 242.588 150.365V163.221C242.588 163.762 242.588 164.168 242.723 164.574C242.588 165.386 242.588 166.333 242.588 167.28V248.608C242.588 251.314 244.889 253.615 247.595 253.615C248.948 253.615 250.166 253.073 251.113 252.126C251.197 252.126 251.229 252.074 251.273 252.003C251.3 251.959 251.332 251.907 251.384 251.855C251.468 251.855 251.5 251.804 251.544 251.732C251.571 251.688 251.603 251.636 251.655 251.585C251.722 251.517 251.756 251.449 251.79 251.382C251.824 251.314 251.858 251.246 251.925 251.179C252.061 251.044 252.196 250.908 252.196 250.773C252.196 250.705 252.23 250.638 252.264 250.57C252.298 250.502 252.331 250.435 252.331 250.367C252.331 250.232 252.365 250.096 252.399 249.961C252.433 249.826 252.467 249.69 252.467 249.555V167.551C252.467 160.92 257.879 155.643 264.375 155.643H269.246C274.794 155.643 279.395 159.432 280.749 164.439V164.709C281.019 165.656 281.155 166.604 281.155 167.551V187.714C281.019 188.12 281.019 188.526 281.019 189.067C281.019 189.473 281.019 190.014 281.155 190.42V276.484C281.155 292.181 276.283 306.931 267.081 319.38H150.571ZM130.543 329.258H278.313C285.214 329.258 290.762 334.806 290.762 341.708C290.762 348.609 285.214 354.157 278.313 354.157H130.543C123.642 354.157 118.094 348.609 118.094 341.708C118.094 334.806 123.642 329.258 130.543 329.258Z" fill="url(#paint8_linear_2108_309)"/>
<path d="M138.121 291.504L141.061 290.908L141.038 290.793L141.006 290.68L138.121 291.504ZM150.571 319.38L148.156 321.161L149.056 322.38H150.571V319.38ZM136.497 288.663L138.618 286.541L138.609 286.532L138.599 286.522L136.497 288.663ZM106.05 258.757L103.929 260.878L103.938 260.887L103.948 260.897L106.05 258.757ZM106.05 238.459L103.929 236.337L103.929 236.337L106.05 238.459ZM106.185 238.323L104.09 236.176L104.077 236.189L104.064 236.202L106.185 238.323ZM126.348 238.459L128.47 236.338L128.469 236.337L126.348 238.459ZM126.483 238.594H129.483V237.352L128.606 236.474L126.483 238.594ZM198.338 118.294L199.956 115.768L199.892 115.727L199.827 115.69L198.338 118.294ZM239.07 141.975L236.948 144.097L236.981 144.129L237.014 144.16L239.07 141.975ZM242.723 164.574L245.683 165.067L245.805 164.332L245.569 163.625L242.723 164.574ZM251.113 252.126V249.126H249.871L248.992 250.005L251.113 252.126ZM251.273 252.003L253.825 253.579L253.826 253.579L251.273 252.003ZM251.384 251.855V248.855H250.141L249.263 249.734L251.384 251.855ZM251.544 251.732L248.992 250.154L248.992 250.155L251.544 251.732ZM251.655 251.585L249.534 249.462L249.533 249.463L251.655 251.585ZM251.925 251.179L249.805 249.056L249.804 249.057L251.925 251.179ZM252.264 250.57L254.947 251.912L254.947 251.911L252.264 250.57ZM280.749 164.439H283.749V164.04L283.645 163.656L280.749 164.439ZM280.749 164.709H277.749V165.129L277.864 165.533L280.749 164.709ZM281.155 187.714L284.001 188.662L284.155 188.2V187.714H281.155ZM281.155 190.42H284.155V189.933L284.001 189.471L281.155 190.42ZM267.081 319.38V322.38H268.594L269.494 321.163L267.081 319.38ZM135.181 292.1C137.3 302.555 141.815 312.565 148.156 321.161L152.985 317.599C147.147 309.686 143.002 300.481 141.061 290.908L135.181 292.1ZM134.376 290.784C134.639 291.047 134.802 291.283 134.919 291.5C135.039 291.725 135.138 291.983 135.237 292.328L141.006 290.68C140.644 289.414 140.034 287.957 138.618 286.541L134.376 290.784ZM103.948 260.897L134.395 290.803L138.599 286.522L108.152 256.616L103.948 260.897ZM98.8552 248.608C98.8552 253.183 100.653 257.603 103.929 260.878L108.171 256.635C106.034 254.498 104.855 251.61 104.855 248.608H98.8552ZM103.929 236.337C100.653 239.613 98.8552 244.032 98.8552 248.608H104.855C104.855 245.605 106.034 242.717 108.171 240.58L103.929 236.337ZM104.064 236.202L103.929 236.337L108.171 240.58L108.307 240.445L104.064 236.202ZM128.469 236.337C121.754 229.622 110.808 229.622 104.09 236.176L108.28 240.471C112.659 236.199 119.846 236.199 124.227 240.58L128.469 236.337ZM128.606 236.474L128.47 236.338L124.226 240.579L124.361 240.714L128.606 236.474ZM129.483 248.608V238.594H123.483V248.608H129.483ZM131.49 250.615C130.441 250.615 129.483 249.657 129.483 248.608H123.483C123.483 252.971 127.127 256.615 131.49 256.615V250.615ZM133.497 248.608C133.497 249.71 132.622 250.615 131.49 250.615V256.615C136.042 256.615 139.497 252.918 139.497 248.608H133.497ZM133.497 159.161V248.608H139.497V159.161H133.497ZM148.405 144.253C140.275 144.253 133.497 150.851 133.497 159.161H139.497C139.497 154.209 143.545 150.253 148.405 150.253V144.253ZM153.277 144.253H148.405V150.253H153.277V144.253ZM168.185 159.161C168.185 151.031 161.587 144.253 153.277 144.253V150.253C158.229 150.253 162.185 154.3 162.185 159.161H168.185ZM168.185 248.608V159.161H162.185V248.608H168.185ZM170.192 250.615C169.142 250.615 168.185 249.657 168.185 248.608H162.185C162.185 252.971 165.829 256.615 170.192 256.615V250.615ZM172.199 248.608C172.199 249.657 171.241 250.615 170.192 250.615V256.615C174.555 256.615 178.199 252.971 178.199 248.608H172.199ZM172.199 128.443V248.608H178.199V128.443H172.199ZM187.107 113.535C178.977 113.535 172.199 120.134 172.199 128.443H178.199C178.199 123.492 182.246 119.535 187.107 119.535V113.535ZM191.978 113.535H187.107V119.535H191.978V113.535ZM199.827 115.69C197.565 114.397 195.027 113.535 191.978 113.535V119.535C193.801 119.535 195.323 120.026 196.85 120.899L199.827 115.69ZM206.887 128.443C206.887 123.204 204.182 118.472 199.956 115.768L196.721 120.821C199.261 122.446 200.887 125.293 200.887 128.443H206.887ZM206.887 248.608V128.443H200.887V248.608H206.887ZM208.893 250.615C207.844 250.615 206.887 249.657 206.887 248.608H200.887C200.887 252.971 204.53 256.615 208.893 256.615V250.615ZM210.9 248.608C210.9 249.657 209.943 250.615 208.893 250.615V256.615C213.257 256.615 216.9 252.971 216.9 248.608H210.9ZM210.9 150.365V248.608H216.9V150.365H210.9ZM225.808 135.457C217.678 135.457 210.9 142.056 210.9 150.365H216.9C216.9 145.413 220.948 141.457 225.808 141.457V135.457ZM230.68 135.457H225.808V141.457H230.68V135.457ZM241.191 139.854C238.335 136.997 234.597 135.457 230.68 135.457V141.457C232.988 141.457 235.204 142.352 236.948 144.097L241.191 139.854ZM245.588 150.365C245.588 146.502 244.082 142.573 241.126 139.791L237.014 144.16C238.658 145.708 239.588 148.003 239.588 150.365H245.588ZM245.588 163.221V150.365H239.588V163.221H245.588ZM245.569 163.625C245.6 163.717 245.6 163.769 245.596 163.718C245.594 163.688 245.591 163.637 245.59 163.551C245.588 163.461 245.588 163.362 245.588 163.221H239.588C239.588 163.656 239.56 164.572 239.878 165.523L245.569 163.625ZM245.588 167.28C245.588 166.265 245.596 165.585 245.683 165.067L239.764 164.081C239.58 165.186 239.588 166.401 239.588 167.28H245.588ZM245.588 248.608V167.28H239.588V248.608H245.588ZM247.595 250.615C246.546 250.615 245.588 249.657 245.588 248.608H239.588C239.588 252.971 243.232 256.615 247.595 256.615V250.615ZM248.992 250.005C248.57 250.427 248.101 250.615 247.595 250.615V256.615C249.796 256.615 251.763 255.719 253.235 254.247L248.992 250.005ZM248.721 250.426C248.698 250.463 248.737 250.397 248.79 250.323C248.847 250.241 248.978 250.065 249.186 249.875C249.408 249.672 249.707 249.465 250.086 249.318C250.462 249.173 250.818 249.126 251.113 249.126V255.126C251.898 255.126 252.65 254.837 253.23 254.307C253.462 254.096 253.614 253.893 253.693 253.781C253.734 253.723 253.767 253.672 253.787 253.641C253.805 253.612 253.822 253.585 253.825 253.579L248.721 250.426ZM249.263 249.734C248.939 250.058 248.749 250.38 248.72 250.427L253.826 253.579C253.851 253.538 253.725 253.756 253.505 253.977L249.263 249.734ZM248.992 250.155C248.969 250.191 249.009 250.126 249.061 250.051C249.119 249.969 249.25 249.793 249.457 249.604C249.68 249.4 249.979 249.193 250.358 249.047C250.734 248.902 251.089 248.855 251.384 248.855V254.855C252.168 254.855 252.919 254.567 253.5 254.037C253.732 253.826 253.884 253.623 253.963 253.511C254.005 253.452 254.037 253.402 254.057 253.371C254.076 253.342 254.093 253.315 254.096 253.309L248.992 250.155ZM249.533 249.463C249.21 249.786 249.021 250.108 248.992 250.154L254.096 253.31C254.122 253.268 253.996 253.486 253.776 253.706L249.533 249.463ZM249.107 250.04C249.074 250.107 249.223 249.774 249.534 249.462L253.775 253.707C254.222 253.261 254.439 252.792 254.473 252.723L249.107 250.04ZM249.804 249.057C249.358 249.503 249.141 249.971 249.107 250.04L254.473 252.723C254.507 252.657 254.357 252.989 254.046 253.3L249.804 249.057ZM249.196 250.773C249.196 250.3 249.315 249.922 249.424 249.672C249.531 249.428 249.649 249.259 249.712 249.175C249.814 249.039 249.912 248.95 249.805 249.056L254.046 253.301C254.075 253.272 254.307 253.048 254.511 252.776C254.691 252.536 255.196 251.82 255.196 250.773H249.196ZM249.58 249.228C249.578 249.234 249.486 249.411 249.408 249.618C249.325 249.839 249.196 250.248 249.196 250.773H255.196C255.196 251.23 255.084 251.572 255.026 251.724C254.974 251.864 254.916 251.974 254.947 251.912L249.58 249.228ZM249.331 250.367C249.331 249.91 249.444 249.568 249.501 249.415C249.553 249.276 249.611 249.166 249.58 249.228L254.947 251.911C254.95 251.906 255.042 251.729 255.119 251.521C255.202 251.301 255.331 250.892 255.331 250.367H249.331ZM249.489 249.233C249.472 249.298 249.331 249.798 249.331 250.367H255.331C255.331 250.544 255.309 250.672 255.301 250.717C255.297 250.741 255.293 250.753 255.295 250.747C255.297 250.738 255.3 250.726 255.309 250.689L249.489 249.233ZM249.467 249.555C249.467 249.377 249.489 249.25 249.497 249.205C249.501 249.181 249.505 249.168 249.503 249.175C249.501 249.183 249.498 249.196 249.489 249.233L255.309 250.689C255.326 250.624 255.467 250.124 255.467 249.555H249.467ZM249.467 167.551V249.555H255.467V167.551H249.467ZM264.375 152.643C256.245 152.643 249.467 159.241 249.467 167.551H255.467C255.467 162.599 259.514 158.643 264.375 158.643V152.643ZM269.246 152.643H264.375V158.643H269.246V152.643ZM283.645 163.656C281.951 157.389 276.2 152.643 269.246 152.643V158.643C273.389 158.643 276.84 161.474 277.852 165.221L283.645 163.656ZM283.749 164.709V164.439H277.749V164.709H283.749ZM284.155 167.551C284.155 166.314 283.977 165.09 283.633 163.885L277.864 165.533C278.061 166.223 278.155 166.894 278.155 167.551H284.155ZM284.155 187.714V167.551H278.155V187.714H284.155ZM284.019 189.067C284.019 188.926 284.019 188.826 284.021 188.737C284.022 188.651 284.025 188.6 284.027 188.57C284.031 188.519 284.031 188.57 284.001 188.662L278.308 186.765C277.991 187.716 278.019 188.632 278.019 189.067H284.019ZM284.001 189.471C284.015 189.515 284.024 189.548 284.028 189.568C284.033 189.588 284.035 189.6 284.035 189.601C284.036 189.602 284.032 189.58 284.029 189.53C284.025 189.48 284.022 189.417 284.021 189.337C284.019 189.255 284.019 189.172 284.019 189.067H278.019C278.019 189.333 277.988 190.408 278.308 191.369L284.001 189.471ZM284.155 276.484V190.42H278.155V276.484H284.155ZM269.494 321.163C279.079 308.195 284.155 292.82 284.155 276.484H278.155C278.155 291.542 273.487 305.666 264.669 317.597L269.494 321.163ZM150.571 322.38H267.081V316.38H150.571V322.38ZM278.313 326.258H130.543V332.258H278.313V326.258ZM293.762 341.708C293.762 333.15 286.871 326.258 278.313 326.258V332.258C283.557 332.258 287.762 336.463 287.762 341.708H293.762ZM278.313 357.157C286.871 357.157 293.762 350.266 293.762 341.708H287.762C287.762 346.952 283.557 351.157 278.313 351.157V357.157ZM130.543 357.157H278.313V351.157H130.543V357.157ZM115.094 341.708C115.094 350.266 121.985 357.157 130.543 357.157V351.157C125.299 351.157 121.094 346.952 121.094 341.708H115.094ZM130.543 326.258C121.985 326.258 115.094 333.15 115.094 341.708H121.094C121.094 336.463 125.299 332.258 130.543 332.258V326.258Z" fill="url(#paint9_linear_2108_309)" mask="url(#path-9-inside-1_2108_309)"/>
</g>
</g>
<defs>
<filter id="filter0_d_2108_309" x="0" y="0" width="435.716" height="375.157" filterUnits="userSpaceOnUse" color-interpolation-filters="sRGB">
<feFlood flood-opacity="0" result="BackgroundImageFix"/>
<feColorMatrix in="SourceAlpha" type="matrix" values="0 0 0 0 0 0 0 0 0 0 0 0 0 0 0 0 0 0 127 0" result="hardAlpha"/>
<feOffset dy="6"/>
<feGaussianBlur stdDeviation="7.5"/>
<feComposite in2="hardAlpha" operator="out"/>
<feColorMatrix type="matrix" values="0 0 0 0 0 0 0 0 0 0 0 0 0 0 0 0 0 0 0.15 0"/>
<feBlend mode="normal" in2="BackgroundImageFix" result="effect1_dropShadow_2108_309"/>
<feBlend mode="normal" in="SourceGraphic" in2="effect1_dropShadow_2108_309" result="shape"/>
</filter>
<filter id="filter1_b_2108_309" x="86.8552" y="101.535" width="218.907" height="267.622" filterUnits="userSpaceOnUse" color-interpolation-filters="sRGB">
<feFlood flood-opacity="0" result="BackgroundImageFix"/>
<feGaussianBlur in="BackgroundImageFix" stdDeviation="7.5"/>
<feComposite in2="SourceAlpha" operator="in" result="effect1_backgroundBlur_2108_309"/>
<feBlend mode="normal" in="SourceGraphic" in2="effect1_backgroundBlur_2108_309" result="shape"/>
</filter>
<linearGradient id="paint0_linear_2108_309" x1="102.151" y1="41.2843" x2="102.151" y2="139.367" gradientUnits="userSpaceOnUse">
<stop stop-color="#006BB0"/>
<stop offset="1" stop-color="#35B0FF"/>
</linearGradient>
<linearGradient id="paint1_linear_2108_309" x1="251.19" y1="41.2843" x2="251.19" y2="61.5306" gradientUnits="userSpaceOnUse">
<stop stop-color="#006BB0"/>
<stop offset="1" stop-color="#35B0FF"/>
</linearGradient>
<linearGradient id="paint2_linear_2108_309" x1="181.827" y1="9" x2="181.827" y2="171.653" gradientUnits="userSpaceOnUse">
<stop stop-color="#006BB0"/>
<stop offset="1" stop-color="#35B0FF"/>
</linearGradient>
<linearGradient id="paint3_linear_2108_309" x1="182.258" y1="53.6681" x2="182.258" y2="61.5304" gradientUnits="userSpaceOnUse">
<stop stop-color="#006BB0"/>
<stop offset="1" stop-color="#35B0FF"/>
</linearGradient>
<linearGradient id="paint4_linear_2108_309" x1="174.221" y1="93.8116" x2="174.221" y2="191.886" gradientUnits="userSpaceOnUse">
<stop stop-color="#006BB0"/>
<stop offset="1" stop-color="#35B0FF"/>
</linearGradient>
<linearGradient id="paint5_linear_2108_309" x1="331.804" y1="93.8116" x2="331.804" y2="191.886" gradientUnits="userSpaceOnUse">
<stop stop-color="#006BB0"/>
<stop offset="1" stop-color="#35B0FF"/>
</linearGradient>
<linearGradient id="paint6_linear_2108_309" x1="253.891" y1="61.5306" x2="253.891" y2="224.182" gradientUnits="userSpaceOnUse">
<stop stop-color="#006BB0"/>
<stop offset="1" stop-color="#35B0FF"/>
</linearGradient>
<linearGradient id="paint7_linear_2108_309" x1="253.895" y1="106.197" x2="253.895" y2="179.519" gradientUnits="userSpaceOnUse">
<stop stop-color="#006BB0"/>
<stop offset="1" stop-color="#35B0FF"/>
</linearGradient>
<linearGradient id="paint8_linear_2108_309" x1="196.309" y1="116.535" x2="196.309" y2="354.157" gradientUnits="userSpaceOnUse">
<stop stop-color="#006BB0" stop-opacity="0.45"/>
<stop offset="1" stop-color="#8DD2FF" stop-opacity="0.2"/>
</linearGradient>
<linearGradient id="paint9_linear_2108_309" x1="196.309" y1="116.535" x2="196.309" y2="354.157" gradientUnits="userSpaceOnUse">
<stop stop-color="white"/>
<stop offset="1" stop-color="#666666" stop-opacity="0"/>
</linearGradient>
</defs>
</svg>
